<svg width="44" height="45" viewBox="0 0 44 45" fill="none" xmlns="http://www.w3.org/2000/svg">
<path d="M39.999 22.9243C39.999 32.8654 31.9401 40.9243 21.999 40.9243C12.0579 40.9243 3.99902 32.8654 3.99902 22.9243C3.99902 12.9832 12.0579 4.92432 21.999 4.92432C31.9401 4.92432 39.999 12.9832 39.999 22.9243Z" fill="#EEEEEE"/>
<path d="M36.0101 24.9803C36.4756 20.1461 33.823 16.7357 33.0002 15.7721C32.2044 14.8356 29.6222 12.091 25.351 11.4738C24.9775 11.4197 18.1512 10.5535 14.0099 15.8858C10.0148 21.0285 12.2343 27.1619 12.5646 28.0335C12.9435 29.0241 14.2698 32.3588 17.8589 34.4105C21.5941 36.5433 26.3688 36.5 30.1473 34.2318C30.6021 33.9611 35.4308 30.9459 36.0046 24.9857L36.0101 24.9803Z" fill="#FFED85"/>
<path d="M23.5 20.6162C24.0846 21.1413 23.9926 22.3485 23.3917 22.8411C23.3376 22.8844 23.029 23.1388 22.6338 23.0847C22.2332 23.036 22.0004 22.7112 21.9246 22.6083C21.5241 22.0507 21.5998 21.1954 22.0275 20.7028C22.1087 20.6108 22.2873 20.4105 22.5797 20.3455C23.0723 20.2318 23.4837 20.5891 23.5054 20.6162H23.5Z" fill="#231F20"/>
<path d="M17.4264 19.8809C17.7188 19.9351 17.9191 20.1246 18.0165 20.2545C18.4658 20.85 18.2006 22.1004 17.5076 22.3278C17.0908 22.4631 16.701 22.1654 16.6794 22.1546C16.0568 21.6728 16.1435 20.4656 16.7065 20.0542C16.8689 19.9351 17.1395 19.8376 17.421 19.8864L17.4264 19.8809Z" fill="#231F20"/>
<path d="M20.4423 25.5373C20.2637 25.9054 19.9335 26.0407 19.8414 26.0786C19.7819 26.1002 19.3109 26.2789 18.8345 26.019C18.7642 25.9812 18.304 25.7159 18.2499 25.1962C18.2228 24.931 18.3094 24.7198 18.3581 24.6224C18.6126 24.5412 18.8399 24.5033 19.0023 24.4871C19.4625 24.4437 19.8252 24.5195 19.993 24.5628C20.2095 24.617 20.3882 24.6873 20.5127 24.7469C20.5343 24.8281 20.621 25.1691 20.4423 25.5318V25.5373Z" fill="white" stroke="#231F20" stroke-width="0.585237" stroke-miterlimit="10"/>
<path d="M32.8919 24.4378C33.3574 19.6036 30.7049 16.1932 29.882 15.2296C29.0863 14.2931 26.5041 11.5485 22.2329 10.9313C21.8594 10.8772 15.033 10.0111 10.8918 15.3433C6.89669 20.486 9.11619 26.6194 9.4464 27.491C9.82534 28.4816 11.1516 31.8163 14.7407 33.868C18.476 36.0009 23.2506 35.9576 27.0292 33.6893C27.4839 33.4187 32.3127 30.4034 32.8865 24.4432L32.8919 24.4378Z" stroke="#231F20" stroke-width="1.17047" stroke-linecap="round" stroke-linejoin="round"/>
<path d="M33.9473 14.4937C32.5831 15.3165 31.2189 16.1447 29.8547 16.9676" stroke="#231F20" stroke-width="1.17047" stroke-linecap="round" stroke-linejoin="round"/>
<path d="M32.2041 12.228C30.9644 13.1645 29.7248 14.1011 28.4851 15.0376" stroke="#231F20" stroke-width="1.17047" stroke-linecap="round" stroke-linejoin="round"/>
<path d="M29.9092 10.4238C29.043 11.4686 28.2094 12.5351 27.3974 13.6232" stroke="#231F20" stroke-width="1.17047" stroke-linecap="round" stroke-linejoin="round"/>
<path d="M30.1364 12.0308C31.2299 12.8428 33.3519 14.6563 34.7053 17.7473C35.1329 18.7217 36.2102 21.2552 35.8475 24.6061C35.5877 27.0151 34.6999 28.7744 34.2235 29.5973C33.0055 31.7139 31.4572 32.9861 30.5532 33.6249" stroke="#231F20" stroke-width="1.17047" stroke-linecap="round" stroke-linejoin="round"/>
<path d="M19.7039 24.5133C21.0139 24.7028 21.7068 25.7259 21.7772 25.8342C22.2536 26.565 22.2644 27.2904 22.259 27.5503C22.2536 27.8264 22.2211 28.8062 21.4795 29.4774C20.6512 30.2191 19.5252 30.0404 19.011 29.9592C18.5075 29.878 17.5277 29.7265 16.9051 28.8766C16.1743 27.8805 16.3097 26.4297 17.0026 25.5473C17.4465 24.9789 18.0474 24.7461 18.2314 24.6757C18.4696 24.5837 19.0164 24.4159 19.7039 24.5133Z" stroke="#231F20" stroke-width="0.585237" stroke-miterlimit="10"/>
</svg>
