<svg width="44" height="45" viewBox="0 0 44 45" fill="none" xmlns="http://www.w3.org/2000/svg">
<path d="M39.966 22.9242C39.966 32.8469 31.9221 40.8908 21.9993 40.8908C12.0766 40.8908 4.03268 32.8469 4.03268 22.9242C4.03268 13.0014 12.0766 4.95749 21.9993 4.95749C31.9221 4.95749 39.966 13.0014 39.966 22.9242Z" fill="#FFFBE3" stroke="#FFED85" stroke-width="0.733333"/>
<path d="M36.2727 25.02C36.7469 20.0963 34.0452 16.6227 33.2071 15.6413C32.3966 14.6874 29.7666 11.892 25.4163 11.2635C25.0359 11.2083 18.0832 10.3261 13.8652 15.7571C9.79612 20.9951 12.0567 27.2421 12.3931 28.1298C12.779 29.1388 14.1299 32.5352 17.7854 34.6248C21.5898 36.7972 26.4529 36.7531 30.3014 34.4429C30.7646 34.1672 35.6828 31.0961 36.2672 25.0256L36.2727 25.02Z" fill="#FFED85"/>
<path d="M23.5307 20.5742C24.1262 21.1091 24.0325 22.3386 23.4205 22.8404C23.3653 22.8845 23.0511 23.1436 22.6486 23.0885C22.2406 23.0388 22.0035 22.708 21.9263 22.6033C21.5183 22.0354 21.5955 21.1642 22.031 20.6625C22.1137 20.5687 22.2957 20.3647 22.5934 20.2986C23.0952 20.1828 23.5142 20.5467 23.5363 20.5742H23.5307Z" fill="#231F20"/>
<path d="M17.344 19.8249C17.6418 19.8801 17.8458 20.0731 17.945 20.2054C18.4026 20.8119 18.1325 22.0855 17.4267 22.3171C17.0022 22.455 16.6052 22.1517 16.5831 22.1407C15.9491 21.65 16.0373 20.4204 16.6107 20.0014C16.7761 19.8801 17.0518 19.7808 17.3385 19.8304L17.344 19.8249Z" fill="#231F20"/>
<path d="M20.4159 25.5867C20.2339 25.9617 19.8976 26.0995 19.8038 26.1381C19.7432 26.1601 19.2635 26.3421 18.7783 26.0774C18.7066 26.0388 18.238 25.7687 18.1828 25.2394C18.1553 24.9692 18.2435 24.7542 18.2931 24.6549C18.5522 24.5722 18.7838 24.5336 18.9492 24.5171C19.4179 24.473 19.7873 24.5502 19.9582 24.5943C20.1788 24.6494 20.3607 24.7211 20.4875 24.7817C20.5096 24.8644 20.5978 25.2118 20.4159 25.5812V25.5867Z" fill="white" stroke="#231F20" stroke-width="0.596088" stroke-miterlimit="10"/>
<path d="M33.0969 24.4678C33.5711 19.5441 30.8694 16.0705 30.0313 15.0891C29.2208 14.1352 26.5908 11.3398 22.2405 10.7112C21.8601 10.6561 14.9074 9.7739 10.6894 15.2049C6.62034 20.4428 8.88094 26.6898 9.21727 27.5775C9.60323 28.5865 10.9541 31.9829 14.6096 34.0726C18.4141 36.245 23.2771 36.2009 27.1256 33.8906C27.5888 33.615 32.507 30.5439 33.0914 24.4733L33.0969 24.4678Z" stroke="#231F20" stroke-width="1.19218" stroke-linecap="round" stroke-linejoin="round"/>
<path d="M34.1719 14.3394C32.7824 15.1774 31.393 16.021 30.0035 16.8591" stroke="#231F20" stroke-width="1.19218" stroke-linecap="round" stroke-linejoin="round"/>
<path d="M32.3965 12.0298C31.1339 12.9836 29.8712 13.9375 28.6086 14.8914" stroke="#231F20" stroke-width="1.19218" stroke-linecap="round" stroke-linejoin="round"/>
<path d="M30.0586 10.1934C29.1764 11.2575 28.3273 12.3437 27.5003 13.4519" stroke="#231F20" stroke-width="1.19218" stroke-linecap="round" stroke-linejoin="round"/>
<path d="M30.2909 11.8301C31.4047 12.6571 33.5661 14.5042 34.9445 17.6525C35.3801 18.645 36.4773 21.2254 36.1079 24.6383C35.8432 27.0919 34.939 28.8838 34.4538 29.7219C33.2132 31.8777 31.6363 33.1735 30.7155 33.8241" stroke="#231F20" stroke-width="1.19218" stroke-linecap="round" stroke-linejoin="round"/>
<path d="M19.6644 24.5447C20.9987 24.7376 21.7044 25.7797 21.7761 25.89C22.2613 26.6343 22.2723 27.3732 22.2668 27.6378C22.2613 27.919 22.2282 28.917 21.4728 29.6007C20.6292 30.3561 19.4824 30.1741 18.9586 30.0914C18.4458 30.0087 17.4479 29.8543 16.8138 28.9887C16.0695 27.9741 16.2073 26.4965 16.913 25.5978C17.3652 25.0188 17.9772 24.7817 18.1646 24.7101C18.4072 24.6163 18.9641 24.4454 19.6644 24.5447Z" stroke="#231F20" stroke-width="0.596088" stroke-miterlimit="10"/>
</svg>
