<svg width="368" height="45" viewBox="0 0 368 45" fill="none" xmlns="http://www.w3.org/2000/svg">
<rect width="368" height="45" rx="6" fill="#FEE500"/>
<g clip-path="url(#clip0_2297_13737)">
<path fill-rule="evenodd" clip-rule="evenodd" d="M57 14.1016C52.0292 14.1016 48 17.2145 48 21.0538C48 23.4416 49.5584 25.5465 51.9315 26.7985L50.933 30.4461C50.8448 30.7684 51.2134 31.0252 51.4965 30.8385L55.8733 27.9498C56.2427 27.9854 56.6181 28.0062 57 28.0062C61.9705 28.0062 65.9999 24.8934 65.9999 21.0538C65.9999 17.2145 61.9705 14.1016 57 14.1016" fill="black"/>
</g>
<path d="M159.215 16.215C159.2 20.79 157.115 23.85 153.29 25.86L152.3 24.75C154.235 23.865 155.855 22.44 156.77 20.595L152.855 21.015L152.615 19.68L157.28 19.335C157.445 18.735 157.565 18.12 157.61 17.46H153.29V16.215H159.215ZM162.83 14.82V20.04H164.9V21.315H162.83V28.185H161.285V14.82H162.83ZM172.194 16.215C172.179 20.79 170.094 23.85 166.269 25.86L165.279 24.75C167.214 23.865 168.834 22.44 169.749 20.595L165.834 21.015L165.594 19.68L170.259 19.335C170.424 18.735 170.544 18.12 170.589 17.46H166.269V16.215H172.194ZM175.809 14.82V20.04H177.879V21.315H175.809V28.185H174.264V14.82H175.809ZM190.482 26.475H178.407V25.245H183.657V22.965C181.182 22.725 179.607 21.315 179.607 19.32C179.607 17.115 181.542 15.645 184.437 15.645C187.377 15.645 189.297 17.115 189.297 19.32C189.297 21.33 187.692 22.74 185.187 22.98V25.245H190.482V26.475ZM187.752 19.335C187.752 17.91 186.447 16.905 184.437 16.905C182.472 16.905 181.152 17.91 181.152 19.335C181.152 20.745 182.472 21.705 184.437 21.705C186.432 21.705 187.752 20.745 187.752 19.335ZM206.231 23.025H202.106V25.26H207.401V26.49H195.326V25.26H200.576V23.025H196.871V18.705H204.311V16.98H196.826V15.75H205.841V19.95H198.416V21.78H206.231V23.025ZM220.379 26.235H208.304V24.99H220.379V26.235ZM218.804 16.26C218.804 19.8 218.579 22.305 218.219 24.06L216.704 23.865C217.034 22.53 217.259 19.635 217.259 17.475H209.699V16.26H218.804ZM232.278 24.51H230.748V14.82H232.278V24.51ZM232.593 27.795H223.443V23.595H224.973V26.565H232.593V27.795ZM228.528 19.08C228.528 20.985 227.148 22.35 225.108 22.35C223.068 22.35 221.658 20.985 221.658 19.095C221.658 17.19 223.053 15.81 225.108 15.81C227.148 15.81 228.528 17.175 228.528 19.08ZM226.998 19.08C226.998 17.91 226.278 17.085 225.108 17.085C223.968 17.085 223.203 17.94 223.203 19.08C223.203 20.175 223.968 21.045 225.108 21.045C226.278 21.045 226.998 20.175 226.998 19.08Z" fill="black" fill-opacity="0.85"/>
<defs>
<clipPath id="clip0_2297_13737">
<rect width="17.9999" height="18" fill="white" transform="translate(48 13.5)"/>
</clipPath>
</defs>
</svg>
