<svg width="488" height="45" viewBox="0 0 488 45" fill="none" xmlns="http://www.w3.org/2000/svg">
<rect width="488" height="45" rx="6" fill="#FEE500"/>
<g clip-path="url(#clip0_2297_13732)">
<path fill-rule="evenodd" clip-rule="evenodd" d="M117 14.1016C112.029 14.1016 108 17.2145 108 21.0538C108 23.4416 109.558 25.5465 111.932 26.7985L110.933 30.4461C110.845 30.7684 111.213 31.0252 111.496 30.8385L115.873 27.9498C116.243 27.9854 116.618 28.0062 117 28.0062C121.97 28.0062 126 24.8934 126 21.0538C126 17.2145 121.97 14.1016 117 14.1016" fill="black"/>
</g>
<path d="M219.215 16.215C219.2 20.79 217.115 23.85 213.29 25.86L212.3 24.75C214.235 23.865 215.855 22.44 216.77 20.595L212.855 21.015L212.615 19.68L217.28 19.335C217.445 18.735 217.565 18.12 217.61 17.46H213.29V16.215H219.215ZM222.83 14.82V20.04H224.9V21.315H222.83V28.185H221.285V14.82H222.83ZM232.194 16.215C232.179 20.79 230.094 23.85 226.269 25.86L225.279 24.75C227.214 23.865 228.834 22.44 229.749 20.595L225.834 21.015L225.594 19.68L230.259 19.335C230.424 18.735 230.544 18.12 230.589 17.46H226.269V16.215H232.194ZM235.809 14.82V20.04H237.879V21.315H235.809V28.185H234.264V14.82H235.809ZM250.482 26.475H238.407V25.245H243.657V22.965C241.182 22.725 239.607 21.315 239.607 19.32C239.607 17.115 241.542 15.645 244.437 15.645C247.377 15.645 249.297 17.115 249.297 19.32C249.297 21.33 247.692 22.74 245.187 22.98V25.245H250.482V26.475ZM247.752 19.335C247.752 17.91 246.447 16.905 244.437 16.905C242.472 16.905 241.152 17.91 241.152 19.335C241.152 20.745 242.472 21.705 244.437 21.705C246.432 21.705 247.752 20.745 247.752 19.335ZM266.231 23.025H262.106V25.26H267.401V26.49H255.326V25.26H260.576V23.025H256.871V18.705H264.311V16.98H256.826V15.75H265.841V19.95H258.416V21.78H266.231V23.025ZM280.379 26.235H268.304V24.99H280.379V26.235ZM278.804 16.26C278.804 19.8 278.579 22.305 278.219 24.06L276.704 23.865C277.034 22.53 277.259 19.635 277.259 17.475H269.699V16.26H278.804ZM292.278 24.51H290.748V14.82H292.278V24.51ZM292.593 27.795H283.443V23.595H284.973V26.565H292.593V27.795ZM288.528 19.08C288.528 20.985 287.148 22.35 285.108 22.35C283.068 22.35 281.658 20.985 281.658 19.095C281.658 17.19 283.053 15.81 285.108 15.81C287.148 15.81 288.528 17.175 288.528 19.08ZM286.998 19.08C286.998 17.91 286.278 17.085 285.108 17.085C283.968 17.085 283.203 17.94 283.203 19.08C283.203 20.175 283.968 21.045 285.108 21.045C286.278 21.045 286.998 20.175 286.998 19.08Z" fill="black" fill-opacity="0.85"/>
<defs>
<clipPath id="clip0_2297_13732">
<rect width="17.9999" height="18" fill="white" transform="translate(108 13.5)"/>
</clipPath>
</defs>
</svg>
