<svg width="153" height="42" viewBox="0 0 153 42" fill="none" xmlns="http://www.w3.org/2000/svg">
<path d="M2.4 22.3935C1.33333 21.7776 1.33333 20.238 2.4 19.6222L9.6 15.4652C10.6667 14.8494 12 15.6192 12 16.8509L12 25.1647C12 26.3964 10.6667 27.1662 9.6 26.5504L2.4 22.3935Z" fill="#333333"/>
<rect x="9.0009" y="0.0078125" width="144" height="42" rx="10" fill="#333333"/>
<path d="M31.4289 23.6398V24.6598H21.6129V23.6398H25.8849V21.7918H22.8009V18.2998H29.0409V16.8478H22.7769V15.8518H30.2649V19.2838H24.0129V20.7958H30.5049V21.7918H27.1209V23.6398H31.4289ZM39.72 17.1718H33.456V16.1758H40.956V17.3398C40.956 17.6998 40.952 18.0718 40.944 18.4558C40.944 18.8318 40.932 19.2318 40.908 19.6558C40.884 20.0798 40.844 20.5358 40.788 21.0238C40.732 21.5038 40.652 22.0318 40.548 22.6078L39.3 22.4758C39.404 21.9398 39.484 21.4398 39.54 20.9758C39.596 20.5038 39.636 20.0598 39.66 19.6438C39.692 19.2198 39.708 18.8198 39.708 18.4438C39.716 18.0598 39.72 17.6918 39.72 17.3398V17.1718ZM42.216 23.3998V24.4198H32.412V23.3998H42.216ZM52.139 22.9678H50.903V15.0958H52.139V22.9678ZM49.163 18.5278C49.163 18.9198 49.091 19.2838 48.947 19.6198C48.803 19.9478 48.599 20.2318 48.335 20.4718C48.079 20.7118 47.775 20.8998 47.423 21.0358C47.079 21.1718 46.703 21.2398 46.295 21.2398C45.887 21.2398 45.507 21.1718 45.155 21.0358C44.803 20.8998 44.499 20.7118 44.243 20.4718C43.987 20.2318 43.783 19.9478 43.631 19.6198C43.487 19.2838 43.415 18.9198 43.415 18.5278C43.415 18.1278 43.487 17.7638 43.631 17.4358C43.783 17.0998 43.987 16.8118 44.243 16.5718C44.499 16.3318 44.803 16.1478 45.155 16.0198C45.507 15.8838 45.887 15.8158 46.295 15.8158C46.703 15.8158 47.079 15.8838 47.423 16.0198C47.775 16.1478 48.079 16.3318 48.335 16.5718C48.599 16.8118 48.803 17.0998 48.947 17.4358C49.091 17.7638 49.163 18.1278 49.163 18.5278ZM44.627 18.5278C44.627 18.7758 44.667 18.9998 44.747 19.1998C44.835 19.3998 44.951 19.5718 45.095 19.7158C45.247 19.8598 45.423 19.9718 45.623 20.0518C45.831 20.1318 46.055 20.1718 46.295 20.1718C46.535 20.1718 46.755 20.1318 46.955 20.0518C47.155 19.9718 47.331 19.8598 47.483 19.7158C47.635 19.5718 47.751 19.3998 47.831 19.1998C47.919 18.9998 47.963 18.7758 47.963 18.5278C47.963 18.2718 47.919 18.0438 47.831 17.8438C47.751 17.6438 47.635 17.4718 47.483 17.3278C47.331 17.1838 47.155 17.0758 46.955 17.0038C46.755 16.9238 46.535 16.8838 46.295 16.8838C45.815 16.8838 45.415 17.0318 45.095 17.3278C44.783 17.6238 44.627 18.0238 44.627 18.5278ZM52.451 24.7198V25.7278H45.059V22.1758H46.307V24.7198H52.451ZM66.5337 20.4838H64.8657V25.9438H63.6177V15.0958H64.8657V19.4518H66.5337V20.4838ZM60.2097 16.7638H62.7417V17.7718H56.3937V16.7638H58.9737V15.2518H60.2097V16.7638ZM59.6097 18.5398C59.9937 18.5398 60.3497 18.6038 60.6777 18.7318C61.0057 18.8518 61.2897 19.0238 61.5297 19.2478C61.7697 19.4718 61.9577 19.7398 62.0937 20.0518C62.2297 20.3558 62.2977 20.6958 62.2977 21.0718C62.2977 21.4398 62.2297 21.7798 62.0937 22.0918C61.9577 22.4038 61.7697 22.6718 61.5297 22.8958C61.2897 23.1198 61.0057 23.2958 60.6777 23.4238C60.3497 23.5438 59.9937 23.6038 59.6097 23.6038C59.2177 23.6038 58.8577 23.5438 58.5297 23.4238C58.2017 23.2958 57.9177 23.1198 57.6777 22.8958C57.4377 22.6718 57.2497 22.4038 57.1137 22.0918C56.9857 21.7798 56.9217 21.4398 56.9217 21.0718C56.9217 20.6958 56.9857 20.3558 57.1137 20.0518C57.2497 19.7398 57.4377 19.4718 57.6777 19.2478C57.9177 19.0238 58.2017 18.8518 58.5297 18.7318C58.8577 18.6038 59.2177 18.5398 59.6097 18.5398ZM59.6097 22.5838C60.0497 22.5838 60.4097 22.4478 60.6897 22.1758C60.9777 21.8958 61.1217 21.5278 61.1217 21.0718C61.1217 20.6158 60.9777 20.2518 60.6897 19.9798C60.4097 19.6998 60.0497 19.5598 59.6097 19.5598C59.1697 19.5598 58.8057 19.6998 58.5177 19.9798C58.2377 20.2518 58.0977 20.6158 58.0977 21.0718C58.0977 21.5278 58.2377 21.8958 58.5177 22.1758C58.8057 22.4478 59.1697 22.5838 59.6097 22.5838ZM74.7407 17.1118H68.2727V16.1038H75.9887V17.1718C75.9887 17.5078 75.9847 17.8558 75.9767 18.2158C75.9767 18.5758 75.9607 18.9638 75.9287 19.3798C75.9047 19.7878 75.8647 20.2318 75.8087 20.7118C75.7527 21.1838 75.6727 21.6998 75.5687 22.2598L74.3207 22.1278C74.5287 21.0638 74.6487 20.1318 74.6807 19.3318C74.7207 18.5318 74.7407 17.8118 74.7407 17.1718V17.1118ZM77.0447 23.4958V24.5158H67.2527V23.4958H70.9007V19.6798H72.1487V23.4958H77.0447ZM125.416 20.4838H123.748V25.9438H122.5V15.0958H123.748V19.4518H125.416V20.4838ZM119.092 16.7638H121.624V17.7718H115.276V16.7638H117.856V15.2518H119.092V16.7638ZM118.492 18.5398C118.876 18.5398 119.232 18.6038 119.56 18.7318C119.888 18.8518 120.172 19.0238 120.412 19.2478C120.652 19.4718 120.84 19.7398 120.976 20.0518C121.112 20.3558 121.18 20.6958 121.18 21.0718C121.18 21.4398 121.112 21.7798 120.976 22.0918C120.84 22.4038 120.652 22.6718 120.412 22.8958C120.172 23.1198 119.888 23.2958 119.56 23.4238C119.232 23.5438 118.876 23.6038 118.492 23.6038C118.1 23.6038 117.74 23.5438 117.412 23.4238C117.084 23.2958 116.8 23.1198 116.56 22.8958C116.32 22.6718 116.132 22.4038 115.996 22.0918C115.868 21.7798 115.804 21.4398 115.804 21.0718C115.804 20.6958 115.868 20.3558 115.996 20.0518C116.132 19.7398 116.32 19.4718 116.56 19.2478C116.8 19.0238 117.084 18.8518 117.412 18.7318C117.74 18.6038 118.1 18.5398 118.492 18.5398ZM118.492 22.5838C118.932 22.5838 119.292 22.4478 119.572 22.1758C119.86 21.8958 120.004 21.5278 120.004 21.0718C120.004 20.6158 119.86 20.2518 119.572 19.9798C119.292 19.6998 118.932 19.5598 118.492 19.5598C118.052 19.5598 117.688 19.6998 117.4 19.9798C117.12 20.2518 116.98 20.6158 116.98 21.0718C116.98 21.5278 117.12 21.8958 117.4 22.1758C117.688 22.4478 118.052 22.5838 118.492 22.5838ZM135.075 15.0958V25.9318H133.839V15.0958H135.075ZM131.883 16.2358C131.883 17.0438 131.795 17.8198 131.619 18.5638C131.451 19.2998 131.167 19.9958 130.767 20.6518C130.375 21.3078 129.859 21.9198 129.219 22.4878C128.579 23.0478 127.795 23.5518 126.867 23.9998L126.207 23.0158C127.631 22.3278 128.695 21.5078 129.399 20.5558C130.103 19.5958 130.507 18.4918 130.611 17.2438H126.747V16.2358H131.883ZM138.842 22.5358H137.918L137.726 17.3878L137.69 15.9718H139.082L138.842 22.5358ZM137.678 25.1638V23.6758H139.094V25.1638H137.678Z" fill="#FAFFF4"/>
<path d="M89.3874 21.5158C88.4194 21.3238 87.5914 20.9758 86.9034 20.4718C86.2234 19.9678 85.7034 19.3638 85.3434 18.6598C84.9834 19.3638 84.4634 19.9718 83.7834 20.4838C83.1034 20.9878 82.2794 21.3318 81.3114 21.5158L80.6394 20.1958C81.2634 20.0918 81.8154 19.9118 82.2954 19.6558C82.7754 19.3918 83.1794 19.0878 83.5074 18.7438C83.8354 18.3998 84.0834 18.0278 84.2514 17.6278C84.4194 17.2198 84.5034 16.8198 84.5034 16.4278V15.6358H86.1954V16.4278C86.1954 16.8278 86.2794 17.2318 86.4474 17.6398C86.6154 18.0398 86.8634 18.4118 87.1914 18.7558C87.5194 19.0998 87.9234 19.3998 88.4034 19.6558C88.8834 19.9118 89.4354 20.0918 90.0594 20.1958L89.3874 21.5158ZM90.4074 24.6958H80.3994V23.4118H90.4074V24.6958ZM98.6025 18.9958C98.6185 18.6918 98.6265 18.3918 98.6265 18.0958V17.2198H92.3265V15.9598H100.186V17.2438C100.186 17.6518 100.182 18.0558 100.174 18.4558C100.174 18.8558 100.158 19.2758 100.126 19.7158C100.094 20.1558 100.042 20.6278 99.9705 21.1318C99.8985 21.6278 99.7985 22.1758 99.6705 22.7758L98.1105 22.6198C98.2225 22.1638 98.3065 21.7398 98.3625 21.3478C98.4265 20.9478 98.4785 20.5558 98.5185 20.1718L92.2065 20.4958L92.0145 19.2118L98.6025 18.9958ZM101.194 24.7318H91.2105V23.4358H101.194V24.7318ZM111.418 21.1198H109.918V18.7078H109.03V21.0598H107.554V15.1798H109.03V17.4358H109.918V14.9878H111.418V21.1198ZM107.17 20.5558C106.858 20.6118 106.55 20.6558 106.246 20.6878C105.95 20.7198 105.642 20.7478 105.322 20.7718C105.01 20.7878 104.682 20.7998 104.338 20.8078C103.994 20.8078 103.618 20.8078 103.21 20.8078H102.442V17.5678H105.094V16.7878H102.43V15.5518H106.618V18.7078H103.966V19.5598C104.55 19.5518 105.082 19.5318 105.562 19.4998C106.042 19.4598 106.534 19.3958 107.038 19.3078L107.17 20.5558ZM111.418 21.5878V25.9078H103.906V21.5878H105.478V22.4998H109.858V21.5878H111.418ZM105.478 23.7238V24.6478H109.858V23.7238H105.478Z" fill="#79FF8D"/>
</svg>
