<svg width="117" height="29" viewBox="0 0 117 29" fill="none" xmlns="http://www.w3.org/2000/svg">
<path d="M35.8157 12.8504L29.8874 0.974602C29.4573 0.113862 28.4083 -0.243409 27.5371 0.175082L0.996595 12.9171C0.113385 13.3411 -0.251319 14.3974 0.183378 15.27L6.10521 27.1495C6.53439 28.0112 7.58429 28.3684 8.45645 27.9499L35.0034 15.2051C35.8866 14.7812 36.2513 13.724 35.8166 12.8514L35.8157 12.8504Z" fill="#79FF8D"/>
<path d="M6.83574 20.9952L8.09469 10.6706C8.09469 10.6163 8.0855 10.4297 7.9448 10.2641C7.83628 10.1372 7.70662 10.0885 7.6496 10.071C7.61925 10.0618 7.41969 10.0048 7.21094 10.0995C7.05001 10.1722 6.96356 10.3 6.91758 10.369C6.47892 11.0338 6.28764 11.3879 6.28764 11.3879C6.02831 11.867 5.89588 12.1089 5.74783 12.2367C5.64391 12.3268 5.35791 12.5678 4.92477 12.5889C4.84752 12.5926 4.35092 12.6091 3.97204 12.2303C3.71547 11.9728 3.65293 11.6739 3.6327 11.5709C3.57936 11.295 3.62443 11.0541 3.69799 10.8186C3.94721 10.0204 4.49163 9.38772 4.79786 9.06953C5.24479 8.60605 5.67794 8.15635 6.40535 7.94668C6.83758 7.82253 7.19163 7.8354 7.30934 7.84184C7.54108 7.85564 8.1885 7.90254 8.77797 8.39453C9.40147 8.91412 9.55689 9.5928 9.59643 9.79879C9.73713 9.4806 10.848 7.04637 12.8234 6.21136C13.7494 5.8196 14.6093 5.82788 14.6093 5.82788C15.0415 5.83615 15.5767 5.90788 16.1414 6.13687C18.1213 6.94153 18.7963 9.01528 18.9149 9.4052C19.1154 8.88193 19.9256 6.95165 21.9046 6.17273C22.4012 5.97777 22.8739 5.89225 23.2831 5.86374C23.8607 5.85822 24.715 5.94375 25.5711 6.41919C28.0725 7.8069 28.1157 11.1396 28.1148 11.3226C28.5461 10.4701 29.1218 9.49808 29.8897 8.49017C30.389 7.83541 30.8911 7.268 31.3675 6.78244C31.2765 6.79532 30.9399 6.83302 30.6107 6.62151C30.1996 6.35758 30.1251 5.91524 30.115 5.84627C30.1085 5.79937 30.0478 5.28806 30.435 4.93493C30.733 4.66272 31.0935 4.66916 31.1698 4.67283H34.9126C35.0055 4.67283 35.3145 4.68755 35.5895 4.91929C35.9518 5.22369 35.9665 5.66051 35.9674 5.72764C35.6161 7.37743 35.2639 9.02631 34.9126 10.6761C34.8869 10.7653 34.76 11.1764 34.3498 11.3907C34.1549 11.4927 33.97 11.5111 33.8569 11.513C33.7705 11.513 33.4412 11.4992 33.1562 11.2454C32.815 10.941 32.803 10.5262 32.8021 10.4582C32.963 9.70591 33.1231 8.95458 33.284 8.20233C32.0581 9.46773 30.1177 11.8146 28.9471 15.2889C28.2877 17.2449 28.0376 20.1289 27.9851 20.8149C27.9796 20.8866 27.9769 20.9584 27.9732 21.0292C27.9649 21.2186 27.9042 21.7814 27.4794 22.1484C27.1115 22.4665 26.6922 22.4923 26.5634 22.4951C26.4172 22.4941 26.0999 22.4702 25.7919 22.2606C25.5941 22.1263 25.4599 21.9562 25.3688 21.7879C25.2162 21.5055 25.1683 21.1782 25.2088 20.86C25.3633 19.6636 25.5178 18.468 25.6714 17.2716C25.7376 16.6702 25.8029 16.0678 25.8691 15.4664C26.2029 12.4363 25.9758 10.1427 25.5003 9.37209C25.149 8.80284 24.6699 8.50397 24.6699 8.50397C24.5816 8.44603 24.4584 8.37522 24.3021 8.31361C24.1917 8.27039 23.8239 8.13612 23.3668 8.17842C22.8951 8.22257 22.5649 8.43132 22.3865 8.54535C21.9432 8.82675 21.5313 9.33346 21.1919 9.85305C20.6392 10.6973 20.2484 11.6371 20.0166 12.6193C19.8327 13.4 19.703 14.0631 19.612 14.5753C19.4805 15.3156 19.5035 14.9753 19.1283 18.0726C19.0189 18.9757 18.9094 19.8787 18.8 20.7809C18.7816 20.9345 18.7687 21.088 18.7568 21.2425C18.7411 21.4421 18.6685 21.8109 18.3558 22.1143C17.9521 22.5079 17.4518 22.4969 17.3663 22.4941C17.2412 22.4932 16.8449 22.4739 16.4881 22.1805C16.3179 22.0408 16.2048 21.878 16.1303 21.7226C16.008 21.4688 15.9712 21.1818 16.0062 20.9032C16.1331 19.8833 16.729 15.9547 16.844 14.1762C16.8596 13.9371 16.8945 13.2887 16.9083 12.4795C16.9212 11.6767 16.9286 11.2757 16.8964 11.0228C16.8357 10.5418 16.66 9.08241 15.5703 8.42948C15.3799 8.31545 15.1123 8.19314 14.7601 8.1306C14.6451 8.12417 14.4263 8.12049 14.166 8.17658C11.2113 8.81572 10.2438 15.585 10.151 16.2729C9.9137 18.0395 9.82266 18.9242 9.79967 19.1182C9.68656 20.0581 9.59643 20.8195 9.54218 21.2894C9.52562 21.4081 9.46033 21.7842 9.13754 22.0996C8.74395 22.4849 8.26115 22.4932 8.1701 22.4941C8.06067 22.4941 7.63213 22.4813 7.256 22.1493C7.23393 22.13 7.2137 22.1107 7.19347 22.0913C6.90839 21.8063 6.78516 21.397 6.8339 20.9961L6.83574 20.9952Z" fill="#333333"/>
<path d="M117.001 22.5H113.059V5.39137C113.059 4.06749 113.986 3.375 115.03 3.375C116.074 3.375 117.001 4.06749 117.001 5.39137V22.5ZM104.251 18.0395H110.32C111.463 18.0395 111.798 18.9561 111.798 19.73C111.798 20.5244 111.444 21.4816 110.32 21.4816H102.734C100.408 21.4816 99.7383 20.6262 99.7383 18.3247V6.16534C99.7383 4.80072 100.684 4.1897 101.748 4.1897C102.832 4.1897 103.679 4.82109 103.679 6.16534V17.4692C103.679 17.9377 103.798 18.0395 104.251 18.0395Z" fill="#333333"/>
<path d="M95.3198 3.375C96.3642 3.375 97.2903 4.06749 97.2903 5.39137V22.5H93.3492V14.4141H90.6692V21.726H82.9642C80.4222 21.726 79.9492 20.9317 79.9492 18.3654V7.40775C79.9492 4.84145 80.4222 4.04712 82.9642 4.04712H87.6542C90.1962 4.04712 90.6692 4.84145 90.6692 7.40775V10.9313H93.3492V5.39137C93.3492 4.06749 94.2753 3.375 95.3198 3.375ZM84.4027 18.5284H86.866V7.91693C86.866 7.50958 86.7674 7.24481 86.3339 7.24481H84.2648C83.8313 7.24481 83.7524 7.50958 83.7524 7.91693V17.8359C83.7524 18.2839 83.8904 18.5284 84.4027 18.5284Z" fill="#333333"/>
<path d="M71.7316 3.375C72.7761 3.375 73.4461 4.06749 73.4461 5.1266V22.5H69.9975V14.2105H68.5787C68.2043 19.3227 65.3667 21.3798 61.7999 21.8686C60.3811 22.113 59.514 21.2169 59.5732 20.1577C59.6126 19.3023 60.1249 18.732 61.0905 18.508C63.4552 18.0395 64.9923 17.0415 64.9923 13.0292V8.12061C64.9923 7.83546 64.8149 7.61142 64.4996 7.61142H61.5634C60.3811 7.61142 59.8096 6.77636 59.8096 5.92093C59.8096 5.08586 60.3614 4.14896 61.5634 4.14896H65.9578C67.889 4.14896 68.6181 5.00439 68.6181 6.75599V10.9313H69.9975V5.1266C69.9975 4.06749 70.6872 3.375 71.7316 3.375ZM76.1655 3.375C77.2099 3.375 77.8799 4.06749 77.8799 5.1266V22.5H74.4313V5.1266C74.4313 4.06749 75.121 3.375 76.1655 3.375Z" fill="#333333"/>
<path d="M57.8805 22.5H53.9394V5.39137C53.9394 4.06749 54.8655 3.375 55.91 3.375C56.9544 3.375 57.8805 4.06749 57.8805 5.39137V22.5ZM40.5 16.6342V9.15934C40.5 5.63578 42.8647 3.70088 46.0965 3.70088C49.3282 3.70088 51.7126 5.61542 51.7126 9.15934V16.6342C51.7126 20.1985 49.3282 22.113 46.1162 22.113C42.8844 22.113 40.5 20.1985 40.5 16.6342ZM44.3426 9.01677V16.7768C44.3426 18.121 45.19 18.7728 46.0965 18.7728C47.0029 18.7728 47.8897 18.121 47.8897 16.7768V9.01677C47.8897 7.71326 47.0029 7.02077 46.0965 7.04113C45.19 7.0615 44.3426 7.73363 44.3426 9.01677Z" fill="#333333"/>
</svg>
