<svg width="36" height="36" viewBox="0 0 36 36" fill="none" xmlns="http://www.w3.org/2000/svg">
<path d="M35.8157 17.3504L29.8874 5.4746C29.4573 4.61386 28.4083 4.25659 27.5371 4.67508L0.996595 17.4171C0.113385 17.8411 -0.251319 18.8974 0.183378 19.77L6.10521 31.6495C6.53439 32.5112 7.58429 32.8684 8.45645 32.4499L35.0034 19.7051C35.8866 19.2812 36.2513 18.224 35.8166 17.3514L35.8157 17.3504Z" fill="#79FF8D"/>
<path d="M6.83183 25.503L8.09079 15.1784C8.09079 15.1241 8.08159 14.9375 7.94089 14.7719C7.83238 14.645 7.70271 14.5963 7.64569 14.5788C7.61535 14.5696 7.41579 14.5126 7.20703 14.6073C7.0461 14.68 6.95966 14.8078 6.91368 14.8768C6.47502 15.5417 6.28374 15.8957 6.28374 15.8957C6.0244 16.3748 5.89198 16.6167 5.74392 16.7445C5.64 16.8346 5.354 17.0756 4.92086 17.0967C4.84361 17.1004 4.34702 17.117 3.96813 16.7381C3.71156 16.4806 3.64903 16.1817 3.6288 16.0787C3.57546 15.8028 3.62052 15.5619 3.69409 15.3265C3.94331 14.5282 4.48772 13.8955 4.79395 13.5773C5.24089 13.1139 5.67403 12.6642 6.40145 12.4545C6.83367 12.3303 7.18772 12.3432 7.30543 12.3497C7.53718 12.3634 8.18459 12.4103 8.77407 12.9023C9.39757 13.4219 9.55298 14.1006 9.59253 14.3066C9.73323 13.9884 10.8441 11.5542 12.8195 10.7192C13.7455 10.3274 14.6054 10.3357 14.6054 10.3357C15.0376 10.344 15.5728 10.4157 16.1375 10.6447C18.1174 11.4493 18.7924 13.5231 18.911 13.913C19.1115 13.3897 19.9217 11.4595 21.9007 10.6805C22.3973 10.4856 22.87 10.4001 23.2792 10.3716C23.8567 10.366 24.7111 10.4516 25.5672 10.927C28.0686 12.3147 28.1118 15.6474 28.1109 15.8304C28.5422 14.9779 29.1179 14.0059 29.8858 12.998C30.3851 12.3432 30.8872 11.7758 31.3636 11.2903C31.2726 11.3031 30.936 11.3408 30.6067 11.1293C30.1957 10.8654 30.1212 10.4231 30.1111 10.3541C30.1046 10.3072 30.0439 9.79587 30.4311 9.44274C30.7291 9.17053 31.0895 9.17697 31.1659 9.18065H34.9087C35.0016 9.18065 35.3106 9.19536 35.5856 9.4271C35.9479 9.7315 35.9626 10.1683 35.9635 10.2355C35.6122 11.8852 35.26 13.5341 34.9087 15.1839C34.883 15.2731 34.7561 15.6842 34.3459 15.8985C34.151 16.0005 33.9661 16.0189 33.853 16.0208C33.7666 16.0208 33.4373 16.007 33.1523 15.7532C32.8111 15.4488 32.7991 15.034 32.7982 14.966C32.9591 14.2137 33.1191 13.4624 33.2801 12.7101C32.0542 13.9755 30.1138 16.3224 28.9432 19.7967C28.2838 21.7528 28.0337 24.6367 27.9812 25.3227C27.9757 25.3945 27.973 25.4662 27.9693 25.537C27.961 25.7264 27.9003 26.2892 27.4754 26.6562C27.1076 26.9744 26.6883 27.0001 26.5595 27.0029C26.4133 27.002 26.096 26.978 25.7879 26.7684C25.5902 26.6341 25.456 26.464 25.3649 26.2957C25.2123 26.0134 25.1644 25.686 25.2049 25.3678C25.3594 24.1714 25.5139 22.9759 25.6675 21.7794C25.7337 21.178 25.799 20.5757 25.8652 19.9742C26.199 16.9441 25.9719 14.6505 25.4964 13.8799C25.1451 13.3107 24.666 13.0118 24.666 13.0118C24.5777 12.9538 24.4545 12.883 24.2982 12.8214C24.1878 12.7782 23.82 12.6439 23.3629 12.6862C22.8911 12.7304 22.561 12.9391 22.3826 13.0532C21.9393 13.3346 21.5273 13.8413 21.188 14.3609C20.6353 15.2051 20.2445 16.1449 20.0127 17.1271C19.8288 17.9078 19.6991 18.5709 19.6081 19.0831C19.4766 19.8234 19.4996 19.4831 19.1244 22.5804C19.0149 23.4835 18.9055 24.3866 18.7961 25.2887C18.7777 25.4423 18.7648 25.5959 18.7529 25.7503C18.7372 25.9499 18.6646 26.3187 18.3519 26.6221C17.9482 27.0157 17.4479 27.0047 17.3624 27.002C17.2373 27.001 16.841 26.9817 16.4842 26.6884C16.314 26.5486 16.2009 26.3858 16.1264 26.2304C16.0041 25.9766 15.9673 25.6897 16.0023 25.411C16.1292 24.3912 16.7251 20.4625 16.84 18.684C16.8557 18.4449 16.8906 17.7966 16.9044 16.9873C16.9173 16.1845 16.9247 15.7835 16.8925 15.5306C16.8318 15.0497 16.6561 13.5902 15.5664 12.9373C15.376 12.8233 15.1084 12.7009 14.7562 12.6384C14.6412 12.632 14.4224 12.6283 14.1621 12.6844C11.2074 13.3235 10.2399 20.0929 10.1471 20.7807C9.9098 22.5473 9.81875 23.432 9.79576 23.626C9.68265 24.5659 9.59253 25.3273 9.53827 25.7972C9.52172 25.9159 9.45642 26.292 9.13364 26.6074C8.74004 26.9928 8.25724 27.001 8.1662 27.002C8.05676 27.002 7.62822 26.9891 7.2521 26.6571C7.23003 26.6378 7.20979 26.6185 7.18956 26.5992C6.90448 26.3141 6.78125 25.9048 6.82999 25.5039L6.83183 25.503Z" fill="#333333"/>
</svg>
