<svg width="77" height="54" viewBox="0 0 77 54" fill="none" xmlns="http://www.w3.org/2000/svg">
<path d="M72.1219 50H68.6186V34.7923C68.6186 33.6155 69.4419 33 70.3702 33C71.2986 33 72.1219 33.6155 72.1219 34.7923V50ZM60.7888 46.0351H66.1838C67.1998 46.0351 67.4976 46.8498 67.4976 47.5378C67.4976 48.2439 67.1823 49.0948 66.1838 49.0948H59.4401C57.3731 49.0948 56.7776 48.3344 56.7776 46.2886V35.4803C56.7776 34.2673 57.6184 33.7242 58.5642 33.7242C59.5276 33.7242 60.2808 34.2854 60.2808 35.4803V45.5282C60.2808 45.9446 60.3859 46.0351 60.7888 46.0351Z" fill="#333333"/>
<path d="M52.8502 33C53.7786 33 54.6018 33.6155 54.6018 34.7923V50H51.0986V42.8126H48.7164V49.312H41.8675C39.6079 49.312 39.1875 48.606 39.1875 46.3248V36.5847C39.1875 34.3035 39.6079 33.5974 41.8675 33.5974H46.0364C48.296 33.5974 48.7164 34.3035 48.7164 36.5847V39.7167H51.0986V34.7923C51.0986 33.6155 51.9218 33 52.8502 33ZM43.1462 46.4696H45.3357V37.0373C45.3357 36.6752 45.2481 36.4398 44.8628 36.4398H43.0236C42.6382 36.4398 42.5681 36.6752 42.5681 37.0373V45.8541C42.5681 46.2524 42.6908 46.4696 43.1462 46.4696Z" fill="#333333"/>
<path d="M31.8843 33C32.8127 33 33.4082 33.6155 33.4082 34.557V50H30.3429V42.6315H29.0817C28.7489 47.1757 26.2265 49.0043 23.0561 49.4388C21.7949 49.656 21.0242 48.8594 21.0767 47.918C21.1118 47.1576 21.5672 46.6507 22.4255 46.4515C24.5275 46.0351 25.8937 45.148 25.8937 41.5815V37.2183C25.8937 36.9649 25.7361 36.7657 25.4558 36.7657H22.8459C21.7949 36.7657 21.2869 36.0234 21.2869 35.263C21.2869 34.5208 21.7774 33.688 22.8459 33.688H26.752C28.4686 33.688 29.1167 34.4483 29.1167 36.0053V39.7167H30.3429V34.557C30.3429 33.6155 30.9559 33 31.8843 33ZM35.8255 33C36.7538 33 37.3494 33.6155 37.3494 34.557V50H34.284V34.557C34.284 33.6155 34.8971 33 35.8255 33Z" fill="#333333"/>
<path d="M19.5705 50H16.0672V34.7923C16.0672 33.6155 16.8905 33 17.8188 33C18.7472 33 19.5705 33.6155 19.5705 34.7923V50ZM4.12109 44.7859V38.1416C4.12109 35.0096 6.22305 33.2897 9.09572 33.2897C11.9684 33.2897 14.0879 34.9915 14.0879 38.1416V44.7859C14.0879 47.9542 11.9684 49.656 9.11323 49.656C6.24056 49.656 4.12109 47.9542 4.12109 44.7859ZM7.53677 38.0149V44.9127C7.53677 46.1076 8.28997 46.6869 9.09572 46.6869C9.90147 46.6869 10.6897 46.1076 10.6897 44.9127V38.0149C10.6897 36.8562 9.90147 36.2407 9.09572 36.2588C8.28997 36.2769 7.53677 36.8743 7.53677 38.0149Z" fill="#333333"/>
<path d="M35.9573 15.3014L30.6877 4.7451C30.3054 3.97999 29.373 3.66242 28.5985 4.03441L5.00696 15.3607C4.22188 15.7376 3.8977 16.6765 4.2841 17.4521L9.54795 28.0117C9.92944 28.7776 10.8627 29.0952 11.6379 28.7232L35.2352 17.3945C36.0203 17.0176 36.3445 16.0779 35.9581 15.3022L35.9573 15.3014Z" fill="#79FF8D"/>
<path d="M10.196 22.5427L11.3151 13.3653C11.3151 13.317 11.3069 13.1511 11.1818 13.004C11.0854 12.8912 10.9701 12.8478 10.9194 12.8323C10.8925 12.8241 10.7151 12.7734 10.5295 12.8576C10.3865 12.9222 10.3096 13.0358 10.2688 13.0972C9.87884 13.6882 9.70881 14.0029 9.70881 14.0029C9.47829 14.4288 9.36058 14.6437 9.22897 14.7574C9.1366 14.8375 8.88238 15.0517 8.49736 15.0705C8.4287 15.0737 7.98728 15.0884 7.65049 14.7517C7.42243 14.5228 7.36684 14.2571 7.34886 14.1655C7.30145 13.9203 7.3415 13.7061 7.4069 13.4969C7.62842 12.7873 8.11235 12.2249 8.38456 11.9421C8.78183 11.5301 9.16685 11.1304 9.81344 10.944C10.1976 10.8337 10.5124 10.8451 10.617 10.8508C10.823 10.8631 11.3985 10.9048 11.9224 11.3421C12.4767 11.804 12.6148 12.4072 12.65 12.5903C12.775 12.3075 13.7625 10.1437 15.5183 9.40151C16.3415 9.05328 17.1058 9.06064 17.1058 9.06064C17.49 9.06799 17.9658 9.13175 18.4677 9.3353C20.2276 10.0506 20.8276 11.8939 20.9331 12.2405C21.1113 11.7754 21.8314 10.0595 23.5906 9.36718C24.032 9.19388 24.4521 9.11786 24.8159 9.09252C25.3293 9.08761 26.0887 9.16363 26.8497 9.58625C29.0731 10.8198 29.1115 13.7822 29.1107 13.9448C29.4941 13.1871 30.0058 12.323 30.6884 11.4271C31.1323 10.8451 31.5786 10.3407 32.002 9.90914C31.9211 9.92058 31.6219 9.9541 31.3293 9.76609C30.9639 9.53148 30.8977 9.13829 30.8887 9.07699C30.8829 9.0353 30.829 8.5808 31.1731 8.2669C31.438 8.02494 31.7584 8.03066 31.8263 8.03393H35.1532C35.2358 8.03393 35.5105 8.04701 35.7549 8.25301C36.0769 8.52358 36.09 8.91186 36.0908 8.97154C35.7786 10.438 35.4655 11.9037 35.1532 13.3702C35.1304 13.4495 35.0175 13.8149 34.653 14.0053C34.4797 14.0961 34.3154 14.1124 34.2148 14.114C34.138 14.114 33.8453 14.1018 33.5919 13.8762C33.2887 13.6056 33.278 13.2369 33.2772 13.1764C33.4203 12.5078 33.5625 11.8399 33.7056 11.1713C32.6159 12.2961 30.8911 14.3822 29.8505 17.4705C29.2644 19.2091 29.0421 21.7726 28.9955 22.3824C28.9906 22.4462 28.9881 22.51 28.9848 22.5729C28.9775 22.7413 28.9235 23.2416 28.5459 23.5677C28.2189 23.8506 27.8462 23.8735 27.7317 23.8759C27.6017 23.8751 27.3197 23.8538 27.0459 23.6675C26.8701 23.5481 26.7508 23.3969 26.6699 23.2473C26.5342 22.9963 26.4917 22.7053 26.5276 22.4225C26.665 21.359 26.8023 20.2963 26.9388 19.2329C26.9977 18.6982 27.0557 18.1628 27.1145 17.6282C27.4113 14.9348 27.2094 12.8961 26.7868 12.211C26.4745 11.7051 26.0486 11.4394 26.0486 11.4394C25.9701 11.3879 25.8606 11.3249 25.7216 11.2702C25.6235 11.2318 25.2966 11.1124 24.8903 11.15C24.4709 11.1892 24.1775 11.3748 24.0189 11.4762C23.6249 11.7263 23.2587 12.1767 22.957 12.6386C22.4658 13.389 22.1184 14.2244 21.9124 15.0974C21.7489 15.7914 21.6336 16.3808 21.5527 16.8361C21.4358 17.4942 21.4562 17.1917 21.1227 19.9448C21.0254 20.7476 20.9282 21.5503 20.8309 22.3522C20.8145 22.4887 20.8031 22.6252 20.7925 22.7626C20.7786 22.9399 20.714 23.2677 20.4361 23.5375C20.0772 23.8874 19.6325 23.8775 19.5565 23.8751C19.4453 23.8743 19.093 23.8571 18.7758 23.5963C18.6246 23.4721 18.5241 23.3274 18.4579 23.1893C18.3491 22.9636 18.3164 22.7086 18.3475 22.4609C18.4603 21.5544 18.99 18.0623 19.0922 16.4814C19.1061 16.2688 19.1372 15.6925 19.1494 14.9732C19.1609 14.2596 19.1674 13.9031 19.1388 13.6784C19.0848 13.2508 18.9287 11.9536 17.96 11.3732C17.7908 11.2718 17.553 11.1631 17.2399 11.1075C17.1377 11.1018 16.9431 11.0985 16.7118 11.1484C14.0854 11.7165 13.2254 17.7337 13.1429 18.3451C12.932 19.9154 12.851 20.7018 12.8306 20.8743C12.7301 21.7097 12.65 22.3865 12.6017 22.8042C12.587 22.9097 12.529 23.244 12.2421 23.5244C11.8922 23.8669 11.463 23.8743 11.3821 23.8751C11.2848 23.8751 10.9039 23.8636 10.5696 23.5686C10.55 23.5514 10.532 23.5342 10.514 23.5171C10.2606 23.2636 10.151 22.8999 10.1944 22.5435L10.196 22.5427Z" fill="#333333"/>
</svg>
