<svg width="36" height="36" viewBox="0 0 36 36" fill="none" xmlns="http://www.w3.org/2000/svg">
<rect width="36" height="36" fill="white"/>
<path d="M35.8157 17.3504L29.8874 5.4746C29.4573 4.61386 28.4083 4.25659 27.5371 4.67508L0.996595 17.4171C0.113385 17.8411 -0.251319 18.8974 0.183378 19.77L6.10521 31.6495C6.53439 32.5112 7.58429 32.8684 8.45645 32.4499L35.0034 19.7051C35.8866 19.2812 36.2513 18.224 35.8166 17.3514L35.8157 17.3504Z" fill="#79FF8D"/>
<path d="M6.83427 25.4969L8.09323 15.1723C8.09323 15.118 8.08403 14.9314 7.94333 14.7658C7.83482 14.6389 7.70515 14.5902 7.64813 14.5727C7.61779 14.5635 7.41823 14.5065 7.20948 14.6012C7.04854 14.6739 6.9621 14.8017 6.91612 14.8707C6.47746 15.5355 6.28618 15.8896 6.28618 15.8896C6.02684 16.3687 5.89442 16.6106 5.74636 16.7384C5.64244 16.8285 5.35644 17.0695 4.9233 17.0906C4.84605 17.0943 4.34946 17.1109 3.97058 16.732C3.714 16.4745 3.65147 16.1756 3.63124 16.0726C3.5779 15.7967 3.62296 15.5558 3.69653 15.3204C3.94575 14.5221 4.49016 13.8894 4.79639 13.5712C5.24333 13.1078 5.67647 12.6581 6.40389 12.4484C6.83611 12.3242 7.19016 12.3371 7.30787 12.3436C7.53962 12.3573 8.18703 12.4042 8.77651 12.8962C9.40001 13.4158 9.55542 14.0945 9.59497 14.3005C9.73567 13.9823 10.8466 11.5481 12.8219 10.7131C13.748 10.3213 14.6078 10.3296 14.6078 10.3296C15.04 10.3379 15.5753 10.4096 16.1399 10.6386C18.1198 11.4432 18.7948 13.517 18.9135 13.9069C19.1139 13.3836 19.9241 11.4534 21.9032 10.6744C22.3997 10.4795 22.8724 10.394 23.2817 10.3654C23.8592 10.3599 24.7135 10.4455 25.5697 10.9209C28.071 12.3086 28.1143 15.6413 28.1133 15.8243C28.5446 14.9718 29.1203 13.9998 29.8882 12.9919C30.3876 12.3371 30.8897 11.7697 31.366 11.2842C31.275 11.297 30.9384 11.3347 30.6092 11.1232C30.1981 10.8593 30.1236 10.4169 30.1135 10.348C30.1071 10.3011 30.0464 9.78977 30.4335 9.43663C30.7315 9.16443 31.092 9.17086 31.1683 9.17454H34.9112C35.004 9.17454 35.313 9.18926 35.588 9.421C35.9503 9.7254 35.9651 10.1622 35.966 10.2293C35.6147 11.8791 35.2625 13.528 34.9112 15.1778C34.8854 15.267 34.7585 15.6781 34.3484 15.8924C34.1534 15.9944 33.9686 16.0128 33.8554 16.0147C33.769 16.0147 33.4398 16.0009 33.1547 15.7471C32.8135 15.4427 32.8016 15.0279 32.8006 14.9599C32.9616 14.2076 33.1216 13.4563 33.2825 12.704C32.0567 13.9694 30.1163 16.3163 28.9456 19.7906C28.2862 21.7467 28.0361 24.6306 27.9837 25.3166C27.9782 25.3884 27.9754 25.4601 27.9717 25.5309C27.9634 25.7203 27.9028 26.2831 27.4779 26.6501C27.11 26.9683 26.6907 26.994 26.5619 26.9968C26.4157 26.9958 26.0985 26.9719 25.7904 26.7623C25.5927 26.628 25.4584 26.4579 25.3674 26.2896C25.2147 26.0073 25.1669 25.6799 25.2073 25.3617C25.3618 24.1653 25.5163 22.9698 25.6699 21.7733C25.7361 21.1719 25.8014 20.5695 25.8676 19.9681C26.2015 16.938 25.9743 14.6444 25.4989 13.8738C25.1476 13.3046 24.6684 13.0057 24.6684 13.0057C24.5802 12.9477 24.4569 12.8769 24.3006 12.8153C24.1902 12.7721 23.8224 12.6378 23.3654 12.6801C22.8936 12.7243 22.5634 12.933 22.385 13.0471C21.9418 13.3285 21.5298 13.8352 21.1904 14.3548C20.6378 15.199 20.2469 16.1388 20.0152 17.121C19.8313 17.9017 19.7016 18.5648 19.6105 19.077C19.479 19.8173 19.502 19.477 19.1268 22.5743C19.0174 23.4774 18.908 24.3804 18.7985 25.2826C18.7801 25.4362 18.7673 25.5897 18.7553 25.7442C18.7397 25.9438 18.667 26.3126 18.3543 26.616C17.9506 27.0096 17.4504 26.9986 17.3648 26.9958C17.2398 26.9949 16.8434 26.9756 16.4866 26.6823C16.3165 26.5425 16.2034 26.3797 16.1289 26.2243C16.0066 25.9705 15.9698 25.6836 16.0047 25.4049C16.1316 24.385 16.7275 20.4564 16.8425 18.6779C16.8581 18.4388 16.8931 17.7905 16.9069 16.9812C16.9197 16.1784 16.9271 15.7774 16.8949 15.5245C16.8342 15.0436 16.6586 13.5841 15.5688 12.9312C15.3785 12.8172 15.1108 12.6948 14.7586 12.6323C14.6437 12.6259 14.4248 12.6222 14.1646 12.6783C11.2098 13.3174 10.2424 20.0867 10.1495 20.7746C9.91224 22.5412 9.82119 23.4259 9.7982 23.6199C9.68509 24.5598 9.59497 25.3212 9.54071 25.7911C9.52416 25.9098 9.45887 26.2859 9.13608 26.6013C8.74248 26.9867 8.25968 26.9949 8.16864 26.9958C8.0592 26.9958 7.63066 26.983 7.25454 26.651C7.23247 26.6317 7.21223 26.6124 7.192 26.5931C6.90692 26.308 6.78369 25.8987 6.83243 25.4978L6.83427 25.4969Z" fill="#333333"/>
</svg>
