<svg width="97" height="97" viewBox="0 0 97 97" fill="none" xmlns="http://www.w3.org/2000/svg">
<path fill-rule="evenodd" clip-rule="evenodd" d="M19.3611 13.7614C17.799 12.1993 15.2664 12.1993 13.7043 13.7614C12.1422 15.3235 12.1422 17.8562 13.7043 19.4183L42.8759 48.5898L13.7043 77.7614C12.1422 79.3235 12.1422 81.8562 13.7043 83.4183C15.2664 84.9804 17.799 84.9804 19.3611 83.4183L48.5327 54.2467L77.7043 83.4183C79.2664 84.9804 81.799 84.9804 83.3611 83.4183C84.9232 81.8562 84.9232 79.3235 83.3611 77.7614L54.1896 48.5898L83.3611 19.4183C84.9232 17.8562 84.9232 15.3235 83.3611 13.7614C81.799 12.1993 79.2664 12.1993 77.7043 13.7614L48.5327 42.933L19.3611 13.7614Z" fill="#E0E0E0"/>
</svg>
