<svg width="44" height="44" viewBox="0 0 44 44" fill="none" xmlns="http://www.w3.org/2000/svg">
<rect width="44" height="44" rx="4" fill="#F7F7F7"/>
<path fill-rule="evenodd" clip-rule="evenodd" d="M24.3044 11.327C26.1418 9.48954 29.1209 9.48954 30.9583 11.327L31.6729 12.0416C33.5103 13.879 33.5103 16.8581 31.6729 18.6956L25.0363 25.3322C23.1989 27.1697 20.2199 27.1697 18.3825 25.3322L18.0252 24.9749C17.5002 24.4499 17.5002 23.5988 18.0252 23.0738C18.5501 22.5488 19.4013 22.5488 19.9263 23.0738L20.2836 23.4311C21.071 24.2186 22.3478 24.2186 23.1352 23.4311L29.7718 16.7944C30.5593 16.007 30.5593 14.7302 29.7718 13.9427L29.0572 13.2281C28.2697 12.4406 26.993 12.4406 26.2055 13.2281L22.8872 16.5464C22.3623 17.0714 21.5111 17.0714 20.9861 16.5464C20.4612 16.0215 20.4612 15.1703 20.9861 14.6453L24.3044 11.327Z" fill="#333333"/>
<path fill-rule="evenodd" clip-rule="evenodd" d="M17.6956 32.673C15.8582 34.5105 12.8791 34.5105 11.0417 32.673L10.3271 31.9584C8.48968 30.121 8.48969 27.1419 10.3271 25.3044L16.9637 18.6678C18.8011 16.8303 21.7801 16.8303 23.6175 18.6678L23.9748 19.0251C24.4998 19.5501 24.4998 20.4012 23.9748 20.9262C23.4499 21.4512 22.5987 21.4512 22.0737 20.9262L21.7164 20.5689C20.929 19.7814 19.6522 19.7814 18.8648 20.5689L12.2282 27.2056C11.4407 27.993 11.4407 29.2698 12.2282 30.0573L12.9428 30.7719C13.7303 31.5594 15.007 31.5594 15.7945 30.7719L19.1128 27.4536C19.6377 26.9286 20.4889 26.9286 21.0139 27.4536C21.5388 27.9785 21.5388 28.8297 21.0139 29.3547L17.6956 32.673Z" fill="#333333"/>
</svg>
