<svg width="31" height="31" viewBox="0 0 31 31" fill="none" xmlns="http://www.w3.org/2000/svg">
<rect x="0.125" y="0.078125" width="30" height="30" rx="15" fill="#333333"/>
<path fill-rule="evenodd" clip-rule="evenodd" d="M20.9988 7.61564C21.4381 7.1763 22.1504 7.1763 22.5898 7.61564C23.0291 8.05498 23.0291 8.76729 22.5898 9.20663L16.7186 15.0778L22.5898 20.949C23.0291 21.3883 23.0291 22.1006 22.5898 22.54C22.1504 22.9793 21.4381 22.9793 20.9988 22.54L15.1276 16.6688L9.25643 22.54C8.81709 22.9793 8.10478 22.9793 7.66544 22.54C7.2261 22.1006 7.2261 21.3883 7.66544 20.949L13.5366 15.0778L7.66544 9.20663C7.2261 8.76729 7.2261 8.05498 7.66544 7.61564C8.10478 7.1763 8.81709 7.1763 9.25643 7.61564L15.1276 13.4868L20.9988 7.61564Z" fill="#FF8484"/>
</svg>
