<svg width="31" height="31" viewBox="0 0 31 31" fill="none" xmlns="http://www.w3.org/2000/svg">
<circle cx="15.125" cy="15.0781" r="15" fill="#333333"/>
<path fill-rule="evenodd" clip-rule="evenodd" d="M9.87405 9.18704C9.81456 9.18704 9.76634 9.23596 9.76634 9.29631V20.8503C9.76634 20.882 9.7742 20.8989 9.78144 20.91C9.79052 20.9238 9.8061 20.9386 9.82817 20.9492C9.85024 20.9597 9.87144 20.9625 9.88774 20.9607C9.90072 20.9594 9.91862 20.9547 9.94269 20.9345L13.9269 17.5932C14.513 17.1016 15.3606 17.1016 15.9467 17.5932L19.9309 20.9345C19.955 20.9547 19.9729 20.9594 19.9858 20.9607C20.0021 20.9625 20.0233 20.9597 20.0454 20.9492C20.0675 20.9386 20.0831 20.9238 20.0921 20.91C20.0994 20.8989 20.1072 20.882 20.1072 20.8503V9.29631C20.1072 9.23596 20.059 9.18704 19.9995 9.18704H9.87405ZM8.28906 9.29631C8.28906 8.40833 8.99869 7.68848 9.87405 7.68848H19.9995C20.8749 7.68848 21.5845 8.40833 21.5845 9.29631V20.8503C21.5845 22.2106 20.0231 22.9562 18.9896 22.0895L15.0054 18.7481C14.9656 18.7147 14.908 18.7147 14.8682 18.7481L10.884 22.0895C9.85051 22.9562 8.28906 22.2106 8.28906 20.8503V9.29631Z" fill="#79FF8D"/>
</svg>
