<svg width="97" height="97" viewBox="0 0 97 97" xmlns="http://www.w3.org/2000/svg">
<path  clip-rule="evenodd" d="M52.3176 21.9428L55.4633 25.2045C57.011 26.8092 59.5436 26.8328 61.12 25.2573C62.6963 23.6817 62.7196 21.1036 61.1719 19.4989L52.0544 10.0455C50.1195 8.03933 46.9534 8.01003 44.983 9.98003L35.5148 19.4465C33.9387 21.0223 33.9158 23.6005 35.4638 25.2049C37.0118 26.8094 39.5443 26.8326 41.1204 25.2568L44.3176 22.0602V52.8917C44.3176 55.1406 46.1085 56.9637 48.3176 56.9637C50.5267 56.9637 52.3176 55.1406 52.3176 52.8917V21.9428ZM13.5532 36.7144C14.3033 35.9508 15.3207 35.5217 16.3816 35.5217H35.3816V43.5217H20.3816L20.3174 80.5218L76.3816 80.5217V43.5217H61.3816V35.5217H80.3816C82.5907 35.5217 84.3816 37.3448 84.3816 39.5937V84.3855C84.3816 86.6344 82.5907 88.5218 80.3816 88.5218H16.3816C14.1725 88.5218 12.3816 86.6344 12.3816 84.3855V39.5937C12.3816 38.5138 12.803 37.478 13.5532 36.7144Z"/>
</svg>
