<svg width="97" height="97" viewBox="0 0 97 97" xmlns="http://www.w3.org/2000/svg"  fill="currentColor">
<path d="M21.4603 16.7637C21.1381 16.7637 20.877 17.0286 20.877 17.3555V79.9248C20.877 80.0964 20.9196 80.1882 20.9587 80.2479C21.0079 80.3228 21.0923 80.4031 21.2118 80.4602C21.3314 80.5173 21.4461 80.5321 21.5344 80.5228C21.6047 80.5154 21.7016 80.4902 21.832 80.3809L43.4078 62.2862C46.5818 59.6244 51.1721 59.6244 54.3461 62.2862L75.9219 80.3809C76.0523 80.4902 76.1492 80.5154 76.2195 80.5228C76.3078 80.5321 76.4226 80.5173 76.5421 80.4602C76.6616 80.4031 76.746 80.3228 76.7952 80.2479C76.8344 80.1882 76.877 80.0964 76.877 79.9248V17.3555C76.877 17.0286 76.6158 16.7637 76.2936 16.7637H21.4603ZM12.877 17.3555C12.877 12.5467 16.7198 8.64844 21.4603 8.64844H76.2936C81.0341 8.64844 84.877 12.5467 84.877 17.3555V79.9248C84.877 87.2911 76.4211 91.3291 70.8245 86.6355L49.2486 68.5408C49.0329 68.3599 48.721 68.3599 48.5053 68.5408L26.9294 86.6355C21.3328 91.3291 12.877 87.2911 12.877 79.9248V17.3555Z"/>
</svg>
