<svg width="31" height="31" viewBox="0 0 31 31" fill="none" xmlns="http://www.w3.org/2000/svg">
<circle cx="15.125" cy="15.0781" r="15" fill="#333333"/>
<path d="M7.05098 12.0845C7.00074 11.7658 7.34963 11.5367 7.62213 11.7093L22.421 21.0868C22.7383 21.2879 22.5959 21.7786 22.2203 21.7786H8.89991C8.71536 21.7786 8.55823 21.6443 8.52949 21.462L7.05098 12.0845Z" fill="#FFED85"/>
<path d="M14.9808 8.41938C15.076 8.24852 15.3218 8.24832 15.4173 8.41902L21.2527 18.8453C21.346 19.012 21.2255 19.2174 21.0345 19.2174H9.38654C9.19575 19.2174 9.07528 19.0123 9.16818 18.8457L14.9808 8.41938Z" fill="#FFED85"/>
<path d="M23.3787 12.0845C23.4289 11.7658 23.0801 11.5367 22.8076 11.7093L8.00866 21.0868C7.69144 21.2879 7.83383 21.7786 8.20937 21.7786H21.5298C21.7143 21.7786 21.8715 21.6443 21.9002 21.462L23.3787 12.0845Z" fill="#FFED85"/>
<circle cx="6.84375" cy="9.99121" r="0.875" fill="#FFED85"/>
<circle cx="15.2188" cy="6.51953" r="0.875" fill="#FFED85"/>
<circle cx="23.4219" cy="9.99121" r="0.875" fill="#FFED85"/>
</svg>
