<svg width="113" height="105" viewBox="0 0 113 105" fill="none" xmlns="http://www.w3.org/2000/svg">
<g clip-path="url(#clip0_1681_12372)">
<path d="M35.1471 21.778C34.4571 14.618 38.3971 9.55801 39.6171 8.13801C40.7971 6.75801 44.6171 2.67801 50.9471 1.75801C51.4971 1.67801 61.6071 0.38801 67.7271 8.27801C73.6371 15.888 70.3471 24.978 69.8471 26.268C69.2871 27.738 67.3171 32.678 62.0071 35.718C56.4771 38.888 49.4071 38.828 43.8171 35.468C43.1471 35.068 35.9971 30.608 35.1571 21.778H35.1471Z" fill="#FFED85"/>
<path d="M53.7071 16.0885C52.8571 16.8585 52.9971 18.6085 53.8671 19.3185C53.9471 19.3885 54.3871 19.7485 54.9671 19.6785C55.5471 19.6085 55.8871 19.1385 55.9971 18.9785C56.5771 18.1685 56.4671 16.9285 55.8471 16.2185C55.7271 16.0785 55.4671 15.7885 55.0471 15.6985C54.3271 15.5385 53.7371 16.0585 53.6971 16.0885H53.7071Z" fill="#333333"/>
<path d="M62.5272 15.0199C62.0972 15.0999 61.8072 15.3699 61.6672 15.5599C61.0172 16.4199 61.4072 18.2399 62.4072 18.5699C63.0072 18.7699 63.5772 18.3399 63.6072 18.3199C64.5072 17.6199 64.3872 15.8699 63.5672 15.2699C63.3272 15.0999 62.9372 14.9499 62.5272 15.0299V15.0199Z" fill="#333333"/>
<path d="M58.1471 23.2372C58.3671 23.7672 58.8671 23.9672 59.0271 24.0272C59.1171 24.0572 59.7971 24.3172 60.4871 23.9372C60.5671 23.8872 61.2571 23.4972 61.3371 22.7472C61.3671 22.4772 61.3071 22.2572 61.2671 22.1172C61.0571 21.9872 60.7171 21.7972 60.2471 21.7172C59.5571 21.6072 59.0271 21.7972 58.8771 21.8572C58.5071 22.0072 58.2471 22.2072 58.0971 22.3472C58.0571 22.4872 57.9871 22.8372 58.1571 23.2272L58.1471 23.2372Z" fill="white" stroke="#333333" stroke-miterlimit="10"/>
<path d="M40.0673 21.6371C39.3873 14.6171 43.2473 9.65715 44.4373 8.25715C45.5973 6.89715 49.3373 2.90715 55.5473 2.01715C56.0873 1.93715 66.0073 0.677147 72.0173 8.42715C77.8173 15.8971 74.5973 24.8071 74.1173 26.0671C73.5673 27.5071 71.6373 32.3471 66.4273 35.3271C61.0073 38.4271 54.0673 38.3671 48.5773 35.0671C47.9173 34.6671 40.9073 30.2971 40.0673 21.6371Z" stroke="#333333" stroke-width="2" stroke-linecap="round" stroke-linejoin="round"/>
<path d="M38.3071 6.66797C40.5171 8.27797 42.7271 9.89797 44.9371 11.508" stroke="#333333" stroke-width="1.5" stroke-linecap="round" stroke-linejoin="round"/>
<path d="M40.7073 3.61719C42.7473 5.46719 44.7373 7.37719 46.6873 9.35719" stroke="#333333" stroke-width="1.5" stroke-linecap="round" stroke-linejoin="round"/>
<path d="M44.0672 3.61719C42.4772 4.79719 39.3972 7.43719 37.4272 11.9172C36.8072 13.3272 35.2472 17.0072 35.7672 21.8772C36.1472 25.3772 37.4372 27.9272 38.1272 29.1272C39.8972 32.2072 42.1472 34.0472 43.4572 34.9772" stroke="#333333" stroke-width="2" stroke-linecap="round" stroke-linejoin="round"/>
<path d="M53.5472 37.5703C53.4672 41.1803 53.5272 44.8003 53.7372 48.4103C52.7972 48.1803 51.8572 47.9503 50.9172 47.7203" stroke="#333333" stroke-width="2" stroke-linecap="round" stroke-linejoin="round"/>
<path d="M61.5672 37.5703C61.6472 41.1803 61.5872 44.8003 61.3772 48.4103C62.3172 48.1803 63.2572 47.9503 64.1972 47.7203" stroke="#333333" stroke-width="2" stroke-linecap="round" stroke-linejoin="round"/>
<path d="M60.1671 26.6183C61.2571 26.4783 62.5071 25.6383 62.6171 24.4083C62.7371 22.9983 61.3071 21.7483 59.8771 21.7083C58.2971 21.6583 56.7371 23.0883 56.9271 24.5383C57.0971 25.9183 58.7671 26.8083 60.1671 26.6183Z" stroke="#333333" stroke-miterlimit="10"/>
<path d="M0.867188 30.137H2.00719V28.427H3.14719V26.717H4.28719V25.577H5.42719V23.867H6.56719V22.157H7.70719V20.447H8.84719V19.307H9.98719V17.597H11.1272V15.887H12.2672V14.177H13.4072V13.037H14.5472V11.327H15.6872V9.61703H16.8272V7.90703H17.9672V6.76703H19.1072V5.05703H20.2472V3.34703H21.3872V2.20703H28.4572V3.34703H29.5972V29.567H34.7272V30.707H35.8672V34.927H34.7272V36.067H29.5972V44.957H28.4572V46.097H23.6672V44.957H22.5272V36.067H2.00719V34.927H0.867188V30.137ZM9.98719 29.567H22.5272V11.897H21.3872V14.177H20.2472V15.317H19.1072V17.027H17.9672V18.737H16.8272V19.877H15.6872V21.587H14.5472V23.297H13.4072V24.437H12.2672V26.147H11.1272V27.857H9.98719V29.567Z" fill="#333333"/>
<path d="M74.0271 30.9886H75.1671V29.2786H76.3071V27.5686H77.4471V26.4286H78.5871V24.7186H79.7271V23.0086H80.8671V21.2986H82.0071V20.1586H83.1471V18.4486H84.2871V16.7386H85.4271V15.0286H86.5671V13.8886H87.7071V12.1786H88.8471V10.4686H89.9871V8.75859H91.1271V7.61859H92.2671V5.90859H93.4071V4.19859H94.5471V3.05859H101.617V4.19859H102.757V30.4186H107.887V31.5586H109.027V35.7786H107.887V36.9186H102.757V45.8086H101.617V46.9486H96.8271V45.8086H95.6871V36.9186H75.1671V35.7786H74.0271V30.9886ZM83.1471 30.4186H95.6871V12.7486H94.5471V15.0286H93.4071V16.1686H92.2671V17.8786H91.1271V19.5886H89.9871V20.7286H88.8471V22.4386H87.7071V24.1486H86.5671V25.2886H85.4271V26.9986H84.2871V28.7086H83.1471V30.4186Z" fill="#333333"/>
<path d="M104.077 53.6875H4.97719C2.7073 53.6875 0.867188 55.5276 0.867188 57.7975V100.058C0.867188 102.327 2.7073 104.167 4.97719 104.167H104.077C106.347 104.167 108.187 102.327 108.187 100.058V57.7975C108.187 55.5276 106.347 53.6875 104.077 53.6875Z" fill="#79FF8D"/>
<path d="M5.51709 53.2492C6.38709 68.9092 6.51709 82.9692 6.08709 98.6392C6.06709 99.4292 7.01709 100.089 8.20709 100.119C18.5471 100.409 27.8271 100.559 38.1571 100.549C62.3271 100.549 86.4971 100.549 110.677 100.549C110.657 97.2492 110.797 94.5992 110.907 92.9392C111.567 83.1392 111.417 76.0392 111.117 61.8392C111.107 61.1692 111.057 60.0092 109.857 59.3492C106.927 57.7392 101.467 61.5192 97.0571 60.1792C93.1371 58.9892 94.7071 55.1692 89.9271 52.4392C87.0671 50.8092 83.4771 50.4292 80.9071 50.3692C61.0371 50.2992 41.1771 50.2492 21.3171 50.2192C16.5371 50.2192 10.4171 50.2092 5.63709 50.1992" stroke="#333333" stroke-width="2" stroke-miterlimit="10" stroke-linecap="round"/>
<path d="M93.6072 50.4591C94.5672 50.3291 98.8972 49.8091 103.207 51.5491C106.967 53.0691 108.347 55.3691 108.717 56.0591" stroke="#333333" stroke-width="2" stroke-miterlimit="10" stroke-linecap="round"/>
<path d="M16.7671 79.5595V75.6795C16.7671 69.2195 21.5271 67.2695 25.4171 67.2695C29.6371 67.2695 33.7971 68.9095 33.7971 77.5595C33.7971 78.0795 33.7371 78.9295 33.6471 79.4395H22.7771V79.4695C22.7771 82.3495 24.7771 83.0495 26.2371 83.0495C27.6971 83.0495 28.3571 82.9295 29.1771 82.6595C29.6371 82.5095 30.0871 82.2695 30.6071 82.1995C31.6371 82.0795 32.6071 82.4395 33.0071 83.3495C33.6471 84.8395 32.9171 86.1095 31.4571 86.9595C30.4871 87.5395 28.3271 88.1695 26.1171 88.1695C21.5371 88.1695 16.7671 86.1095 16.7671 79.5495V79.5595ZM22.7771 75.4595H27.9071C27.9971 72.8495 26.7871 72.1795 25.4471 72.1795C24.1071 72.1795 22.8071 72.8495 22.7771 75.4595Z" fill="#333333"/>
<path d="M36.677 87.7013V70.3113C36.677 68.3113 38.137 67.2812 39.747 67.2812C40.927 67.2812 42.057 67.8613 42.567 68.9813C43.687 67.9213 45.117 67.2812 46.607 67.2812C47.067 67.2812 47.577 67.3413 48.037 67.5213C49.187 68.0113 49.857 69.2213 49.647 70.6513C49.437 72.0813 48.337 72.9912 47.007 72.9912C46.587 72.9912 46.037 72.9612 45.607 72.9912C43.937 73.1112 42.937 74.0513 42.847 75.5713V87.7113H36.687L36.677 87.7013Z" fill="#333333"/>
<path d="M51.3271 87.7013V70.3113C51.3271 68.3113 52.7871 67.2812 54.3971 67.2812C55.5771 67.2812 56.7071 67.8613 57.2171 68.9813C58.3371 67.9213 59.7671 67.2812 61.2571 67.2812C61.7171 67.2812 62.2271 67.3413 62.6871 67.5213C63.8371 68.0113 64.5071 69.2213 64.2971 70.6513C64.0871 72.0813 62.9872 72.9912 61.6572 72.9912C61.2372 72.9912 60.6871 72.9612 60.2571 72.9912C58.5871 73.1112 57.5872 74.0513 57.4972 75.5713V87.7113H51.3372L51.3271 87.7013Z" fill="#333333"/>
<path d="M65.5271 75.6795C65.5271 69.1495 70.1971 67.2695 74.3271 67.2695C78.4571 67.2695 83.1271 69.1495 83.1271 75.6795V79.7795C83.1271 86.3095 78.3671 88.1895 74.3271 88.1895C70.2871 88.1895 65.5271 86.3095 65.5271 79.7795V75.6795ZM77.0371 75.3995C77.0371 73.2395 75.6371 72.3995 74.3371 72.3995C73.0371 72.3995 71.6371 73.2495 71.6371 75.3995V80.0395C71.6371 82.1895 73.0371 83.0395 74.3371 83.0395C75.6371 83.0395 77.0371 82.1895 77.0371 80.0395V75.3995Z" fill="#333333"/>
<path d="M86.0171 87.7013V70.3113C86.0171 68.3113 87.4771 67.2812 89.0871 67.2812C90.2671 67.2812 91.3971 67.8613 91.9071 68.9813C93.0271 67.9213 94.4571 67.2812 95.9471 67.2812C96.4071 67.2812 96.9171 67.3413 97.3771 67.5213C98.5271 68.0113 99.1971 69.2213 98.9871 70.6513C98.7771 72.0813 97.6771 72.9912 96.3471 72.9912C95.9271 72.9912 95.3771 72.9612 94.9471 72.9912C93.2771 73.1112 92.2771 74.0513 92.1871 75.5713V87.7113H86.0271L86.0171 87.7013Z" fill="#333333"/>
</g>
<defs>
<clipPath id="clip0_1681_12372">
<rect width="111.51" height="103.27" fill="white" transform="translate(0.867188 0.898438)"/>
</clipPath>
</defs>
</svg>
