<svg width="32" height="32" viewBox="0 0 32 32" fill="none" xmlns="http://www.w3.org/2000/svg">
<path d="M15.6974 0.272228C15.8724 0.13414 16.1193 0.13414 16.2943 0.272228L18.0243 1.63715C18.156 1.74108 18.3323 1.76901 18.4897 1.71087L20.5568 0.947348C20.766 0.870103 21.0008 0.946397 21.1246 1.13181L22.3481 2.96453C22.4413 3.10408 22.6003 3.18512 22.768 3.17847L24.9699 3.09108C25.1926 3.08224 25.3924 3.22737 25.4528 3.44196L26.0501 5.56307C26.0956 5.72458 26.2218 5.8508 26.3833 5.89628L28.5044 6.4936C28.719 6.55403 28.8641 6.75377 28.8553 6.97653L28.7679 9.17841C28.7613 9.34607 28.8423 9.50512 28.9819 9.59828L30.8146 10.8218C31 10.9456 31.0763 11.1804 30.999 11.3895L30.2355 13.4567C30.1774 13.6141 30.2053 13.7904 30.3092 13.9221L31.6742 15.6521C31.8123 15.8271 31.8123 16.074 31.6742 16.249L30.3092 17.979C30.2053 18.1107 30.1774 18.2871 30.2355 18.4444L30.999 20.5116C31.0763 20.7207 31 20.9555 30.8146 21.0793L28.9819 22.3028C28.8423 22.396 28.7613 22.555 28.7679 22.7227L28.8553 24.9246C28.8641 25.1473 28.719 25.3471 28.5044 25.4075L26.3833 26.0048C26.2218 26.0503 26.0956 26.1765 26.0501 26.338L25.4528 28.4591C25.3924 28.6737 25.1926 28.8189 24.9699 28.81L22.768 28.7226C22.6003 28.716 22.4413 28.797 22.3481 28.9366L21.1246 30.7693C21.0008 30.9547 20.766 31.031 20.5568 30.9538L18.4897 30.1902C18.3323 30.1321 18.156 30.16 18.0243 30.264L16.2943 31.6289C16.1193 31.767 15.8724 31.767 15.6974 31.6289L13.9674 30.264C13.8356 30.16 13.6593 30.1321 13.5019 30.1902L11.4348 30.9538C11.2257 31.031 10.9909 30.9547 10.8671 30.7693L9.64357 28.9366C9.5504 28.797 9.39136 28.716 9.2237 28.7226L7.02182 28.81C6.79906 28.8189 6.59931 28.6737 6.53889 28.4591L5.94157 26.338C5.89609 26.1765 5.76987 26.0503 5.60836 26.0048L3.48725 25.4075C3.27265 25.3471 3.12753 25.1473 3.13637 24.9246L3.22375 22.7227C3.23041 22.555 3.14937 22.396 3.00982 22.3028L1.1771 21.0793C0.991685 20.9555 0.915391 20.7207 0.992635 20.5116L1.75616 18.4444C1.81429 18.2871 1.78637 18.1107 1.68244 17.979L0.317516 16.249C0.179428 16.074 0.179428 15.8271 0.317516 15.6521L1.68244 13.9221C1.78637 13.7904 1.81429 13.6141 1.75616 13.4567L0.992636 11.3895C0.915391 11.1804 0.991686 10.9456 1.1771 10.8218L3.00982 9.59828C3.14937 9.50512 3.23041 9.34607 3.22375 9.17841L3.13637 6.97653C3.12753 6.75377 3.27265 6.55403 3.48724 6.4936L5.60836 5.89628C5.76987 5.8508 5.89609 5.72458 5.94157 5.56307L6.53889 3.44196C6.59931 3.22737 6.79906 3.08224 7.02182 3.09108L9.2237 3.17847C9.39136 3.18512 9.5504 3.10408 9.64357 2.96453L10.8671 1.13181C10.9909 0.946398 11.2257 0.870103 11.4348 0.947347L13.5019 1.71087C13.6593 1.76901 13.8356 1.74108 13.9674 1.63715L15.6974 0.272228Z" fill="#313131"/>
</svg>
