<svg width="60" height="60" viewBox="0 0 60 60" fill="none" xmlns="http://www.w3.org/2000/svg">
<path fill-rule="evenodd" clip-rule="evenodd" d="M14.2438 10.8692C14.0505 10.8692 13.8937 11.0281 13.8937 11.2242V48.7658C13.8937 48.8688 13.9193 48.9239 13.9428 48.9597C13.9723 49.0046 14.023 49.0528 14.0947 49.0871C14.1664 49.1213 14.2353 49.1302 14.2882 49.1246C14.3304 49.1202 14.3885 49.1051 14.4668 49.0395L27.4123 38.1827C29.3166 36.5856 32.0709 36.5856 33.9752 38.1827L46.9207 49.0395C46.999 49.1051 47.0571 49.1202 47.0993 49.1246C47.1522 49.1302 47.2211 49.1213 47.2928 49.0871C47.3645 49.0528 47.4152 49.0046 47.4447 48.9597C47.4682 48.9239 47.4937 48.8688 47.4937 48.7658V11.2242C47.4937 11.0281 47.337 10.8692 47.1437 10.8692H14.2438ZM9.09375 11.2242C9.09375 8.33896 11.3995 6 14.2438 6H47.1437C49.988 6 52.2937 8.33896 52.2937 11.2242V48.7658C52.2937 53.1856 47.2202 55.6084 43.8623 52.7922L30.9168 41.9354C30.7873 41.8269 30.6002 41.8269 30.4707 41.9354L17.5252 52.7922C14.1673 55.6084 9.09375 53.1856 9.09375 48.7658V11.2242Z" fill="#333333"/>
</svg>
