<svg width="49" height="48" viewBox="0 0 49 48" fill="none" xmlns="http://www.w3.org/2000/svg">
<path d="M34.0416 17.2544L34.0396 17.252L33.7746 16.9304C33.7745 16.9303 33.7743 16.9301 33.7742 16.9299C31.1313 13.737 28.8279 10.794 28.8279 5.66519V5.66475C28.828 5.40888 28.7691 5.15644 28.6558 4.92705L29.5524 4.48416L28.6558 4.92704C28.5425 4.69764 28.3778 4.49746 28.1745 4.34207C27.9713 4.18667 27.7349 4.08024 27.4838 4.03105C27.233 3.9819 26.9742 3.9912 26.7276 4.05821C23.7027 4.88624 22.0639 6.80472 21.1913 8.99073L34.0416 17.2544ZM34.0416 17.2544C36.6115 20.3532 39.4834 23.8466 39.4839 29.59M34.0416 17.2544L39.4839 29.59M39.4839 29.59C39.4794 31.4592 39.0946 33.3078 38.3528 35.0235C37.6119 36.7374 36.7295 38.0399 35.1555 39.5832C29.1917 45.431 19.6605 45.5095 13.8239 39.5949C10.7965 36.527 9.51583 33.4976 9.51584 29.5915L9.51582 29.5869C9.50082 26.3145 10.3409 23.095 11.953 20.2472C12.5649 19.1783 13.1794 18.3557 13.6481 17.7864C13.8334 17.5636 14.026 17.347 14.2256 17.1369L14.3961 16.9633L14.4333 16.93L14.4418 16.9243L14.4604 16.9058L14.489 16.8802L14.5057 16.8607C14.7651 16.6268 15.0916 16.4804 15.4391 16.4424C15.7897 16.404 16.1433 16.4781 16.4489 16.6537C17.098 17.0541 17.7848 17.3899 18.4995 17.6561L19.6226 18.0746L19.8331 16.8946C19.9423 16.2824 20.021 15.6652 20.0689 15.0452L20.1108 14.591L20.111 14.5887L20.1135 14.5603C20.2607 12.9271 20.4554 10.8372 21.1911 8.99115L39.4839 29.59Z" fill="#FF8484" stroke="#FFD1D1" stroke-width="2"/>
</svg>
