<svg width="20" height="20" viewBox="0 0 20 20" fill="none" xmlns="http://www.w3.org/2000/svg">
<rect width="20" height="20" rx="10" fill="#FF8484"/>
<path fill-rule="evenodd" clip-rule="evenodd" d="M6.08111 5.02826C5.78822 4.73537 5.31334 4.73537 5.02045 5.02826C4.72756 5.32116 4.72756 5.79603 5.02045 6.08892L8.93457 10.003L5.02045 13.9172C4.72756 14.21 4.72756 14.6849 5.02045 14.9778C5.31334 15.2707 5.78822 15.2707 6.08111 14.9778L9.99523 11.0637L13.9093 14.9778C14.2022 15.2707 14.6771 15.2707 14.97 14.9778C15.2629 14.6849 15.2629 14.21 14.97 13.9172L11.0559 10.003L14.97 6.08892C15.2629 5.79603 15.2629 5.32116 14.97 5.02826C14.6771 4.73537 14.2022 4.73537 13.9093 5.02826L9.99523 8.94238L6.08111 5.02826Z" fill="white"/>
</svg>
