<svg width="14" height="14" viewBox="0 0 14 14" fill="none" xmlns="http://www.w3.org/2000/svg">
<path d="M0.794463 5.74862C0.757399 5.51354 1.01477 5.34449 1.21579 5.47186L12.1329 12.3896C12.3669 12.5379 12.2619 12.8999 11.9848 12.8999H2.15841C2.02226 12.8999 1.90636 12.8009 1.88515 12.6664L0.794463 5.74862Z" fill="#FFE02F"/>
<path d="M6.65177 3.0463C6.72204 2.92025 6.90331 2.9201 6.97379 3.04603L11.2785 10.7375C11.3473 10.8604 11.2585 11.012 11.1176 11.012H2.5249C2.38416 11.012 2.29529 10.8607 2.36382 10.7378L6.65177 3.0463Z" fill="#FFE02F"/>
<path d="M12.8462 5.74862C12.8832 5.51354 12.6259 5.34449 12.4248 5.47186L1.50772 12.3896C1.27371 12.5379 1.37875 12.8999 1.65579 12.8999H11.4822C11.6184 12.8999 11.7343 12.8009 11.7555 12.6664L12.8462 5.74862Z" fill="#FFE02F"/>
<circle cx="0.645485" cy="4.20603" r="0.645485" fill="#FFE02F"/>
<circle cx="6.82127" cy="1.64549" r="0.645485" fill="#FFE02F"/>
<circle cx="12.876" cy="4.20603" r="0.645485" fill="#FFE02F"/>
</svg>
