<svg width="12" height="15" viewBox="0 0 12 15" fill="none" xmlns="http://www.w3.org/2000/svg">
<path d="M6.98283 0.993095L7.04029 1.20416C7.13958 1.17713 7.24377 1.17337 7.34476 1.19315C7.44574 1.21294 7.54081 1.25574 7.62256 1.31824C7.70431 1.38074 7.77054 1.46125 7.81612 1.55351C7.86169 1.64578 7.88538 1.74731 7.88533 1.85021V1.85031C7.88533 3.51645 8.62857 4.46997 9.50793 5.53233L9.59643 5.63971L9.59686 5.64023C10.4537 6.67344 11.4373 7.86625 11.4373 9.82564C11.4358 10.4642 11.3043 11.0958 11.0509 11.6819C10.7977 12.2677 10.4947 12.714 9.96018 13.2381C7.92894 15.2299 4.67947 15.2589 2.68787 13.2407C1.65943 12.1985 1.21882 11.1605 1.21882 9.82575L1.21882 9.82475C1.21372 8.71389 1.49894 7.62099 2.04621 6.65429C2.25414 6.29104 2.46304 6.01138 2.62255 5.81766C2.68619 5.74114 2.75235 5.66674 2.82091 5.59459L2.88102 5.53341L2.89827 5.51797L2.90222 5.51443L2.9024 5.51431L2.9028 5.51392L2.90905 5.50832L2.913 5.50371L2.91683 5.49988C3.02164 5.40417 3.1542 5.34424 3.29537 5.3288C3.437 5.31331 3.57985 5.34343 3.70315 5.41473C3.91355 5.54466 4.13623 5.65358 4.36796 5.73991L4.61364 5.83145L4.65968 5.57334C4.69546 5.37273 4.72123 5.17047 4.7369 4.9673L4.75096 4.81504L4.751 4.81456L4.75185 4.80508L4.75185 4.80508C4.8007 4.26287 4.86635 3.54974 5.11873 2.91649C5.42073 2.15985 5.99212 1.49103 7.04058 1.20409L6.98283 0.993095ZM6.98283 0.993095C5.85803 1.30094 5.2388 2.02555 4.91557 2.8354L9.67644 5.39285C8.80028 4.33435 8.10408 3.43332 8.10408 1.85031C8.10414 1.71377 8.07272 1.57905 8.01225 1.45663C7.95177 1.33422 7.86389 1.22739 7.75542 1.14446C7.64695 1.06153 7.52081 1.00473 7.38682 0.978482C7.25282 0.952229 7.11458 0.95723 6.98283 0.993095Z" fill="#FF8484" stroke="#FFD1D1" stroke-width="0.4375"/>
</svg>
