<svg width="24" height="25" viewBox="0 0 24 25" fill="none" xmlns="http://www.w3.org/2000/svg">
<path fill-rule="evenodd" clip-rule="evenodd" d="M20.9271 3.01906C21.1711 2.77495 21.5669 2.77489 21.811 3.01893C22.0551 3.26298 22.0551 3.6587 21.8111 3.90282L12.8844 12.832L21.8183 21.7685C22.0624 22.0126 22.0623 22.4083 21.8182 22.6524C21.5741 22.8964 21.1784 22.8963 20.9343 22.6522L12.0007 13.716L3.06701 22.6522C2.82296 22.8963 2.42723 22.8964 2.18312 22.6524C1.93901 22.4083 1.93895 22.0126 2.183 21.7685L11.1169 12.832L2.19022 3.90282C1.94618 3.6587 1.94624 3.26298 2.19035 3.01893C2.43446 2.77489 2.83019 2.77495 3.07423 3.01906L12.0007 11.948L20.9271 3.01906Z" fill="#EEEEEE"/>
</svg>
