<svg width="279" height="52" viewBox="0 0 279 52" fill="none" xmlns="http://www.w3.org/2000/svg">
<g filter="url(#filter0_d_3694_30486)">
<rect x="4" y="8.55469" width="271" height="37" rx="4" fill="#333333" shape-rendering="crispEdges"/>
<path d="M27.662 32.7447H25.912V26.5987H24.932V32.2127H23.21V20.1027H24.932V25.1147H25.912V19.8507H27.662V32.7447ZM22.748 21.8107V23.2807H16.588V21.8107H18.786V20.2147H20.606V21.8107H22.748ZM19.696 23.8407C20.1067 23.8407 20.4847 23.9154 20.83 24.0647C21.1753 24.214 21.474 24.4287 21.726 24.7087C21.978 24.9794 22.174 25.306 22.314 25.6887C22.454 26.062 22.524 26.4727 22.524 26.9207C22.524 27.3687 22.454 27.7794 22.314 28.1527C22.174 28.526 21.978 28.8527 21.726 29.1327C21.474 29.4034 21.1753 29.6134 20.83 29.7627C20.4847 29.912 20.1067 29.9867 19.696 29.9867C19.2853 29.9867 18.9073 29.912 18.562 29.7627C18.2167 29.6134 17.918 29.4034 17.666 29.1327C17.414 28.8527 17.218 28.526 17.078 28.1527C16.938 27.7794 16.868 27.3687 16.868 26.9207C16.868 26.4727 16.938 26.062 17.078 25.6887C17.218 25.306 17.414 24.9794 17.666 24.7087C17.918 24.4287 18.2167 24.214 18.562 24.0647C18.9073 23.9154 19.2853 23.8407 19.696 23.8407ZM19.696 28.4467C20.0507 28.4467 20.34 28.316 20.564 28.0547C20.788 27.784 20.9 27.406 20.9 26.9207C20.9 26.4354 20.788 26.0574 20.564 25.7867C20.34 25.516 20.0507 25.3807 19.696 25.3807C19.3413 25.3807 19.052 25.516 18.828 25.7867C18.604 26.0574 18.492 26.4354 18.492 26.9207C18.492 27.406 18.604 27.784 18.828 28.0547C19.052 28.316 19.3413 28.4467 19.696 28.4467ZM35.7809 23.2247V21.7547H38.1329V19.8647H39.9809V26.4167H38.1329V23.2247H35.7809ZM35.9629 26.2627C35.2816 26.048 34.7029 25.7354 34.2269 25.3247C33.7509 24.914 33.3776 24.438 33.1069 23.8967C32.8176 24.5127 32.4209 25.0447 31.9169 25.4927C31.4129 25.9407 30.7922 26.2814 30.0549 26.5147L29.1029 25.0727C29.6349 24.914 30.0922 24.6994 30.4749 24.4287C30.8669 24.158 31.1842 23.8547 31.4269 23.5187C31.6696 23.1734 31.8469 22.8047 31.9589 22.4127C32.0802 22.0207 32.1409 21.6194 32.1409 21.2087V20.2847H34.0029V21.2087C34.0029 21.582 34.0589 21.9554 34.1709 22.3287C34.2829 22.702 34.4556 23.052 34.6889 23.3787C34.9316 23.696 35.2349 23.9854 35.5989 24.2467C35.9629 24.4987 36.3969 24.6994 36.9009 24.8487L35.9629 26.2627ZM40.3449 32.6187H31.4969V29.0907H38.1609V28.3767H31.4829V26.9627H39.9809V30.4207H33.3169V31.1767H40.3449V32.6187ZM53.4758 31.3027H41.7998V29.7907H46.6998V27.1027H43.1578V20.7467H52.1318V22.2307H45.0198V25.6187H52.2298V27.1027H48.5478V29.7907H53.4758V31.3027ZM57.2766 22.4827V21.0267H60.1466V19.7807H62.0086V21.0267H64.8786V22.4827H57.2766ZM67.4406 24.5547V27.6347H65.5926V19.8787H67.4406V23.0427H69.1486V24.5547H67.4406ZM64.2486 25.1847C64.2486 25.53 64.1693 25.8474 64.0106 26.1367C63.8613 26.426 63.6466 26.6734 63.3666 26.8787C63.0866 27.0747 62.7506 27.2287 62.3586 27.3407C61.9759 27.4527 61.5513 27.5087 61.0846 27.5087C60.6179 27.5087 60.1886 27.4527 59.7966 27.3407C59.4139 27.2287 59.0826 27.0747 58.8026 26.8787C58.5226 26.6734 58.3033 26.426 58.1446 26.1367C57.9953 25.8474 57.9206 25.53 57.9206 25.1847C57.9206 24.8394 57.9953 24.5267 58.1446 24.2467C58.3033 23.9574 58.5226 23.7147 58.8026 23.5187C59.0826 23.3134 59.4139 23.1547 59.7966 23.0427C60.1886 22.9307 60.6179 22.8747 61.0846 22.8747C61.5513 22.8747 61.9759 22.9307 62.3586 23.0427C62.7506 23.1547 63.0866 23.3134 63.3666 23.5187C63.6466 23.7147 63.8613 23.9574 64.0106 24.2467C64.1693 24.5267 64.2486 24.8394 64.2486 25.1847ZM59.6846 25.1847C59.6846 25.5114 59.8106 25.754 60.0626 25.9127C60.3239 26.0714 60.6646 26.1507 61.0846 26.1507C61.5046 26.1507 61.8406 26.0714 62.0926 25.9127C62.3539 25.754 62.4846 25.5114 62.4846 25.1847C62.4846 24.8674 62.3539 24.6294 62.0926 24.4707C61.8406 24.312 61.5046 24.2327 61.0846 24.2327C60.6646 24.2327 60.3239 24.312 60.0626 24.4707C59.8106 24.6294 59.6846 24.8674 59.6846 25.1847ZM67.4406 28.1947V32.6047H59.0546V28.1947H67.4406ZM65.6346 31.1627V29.6507H60.8746V31.1627H65.6346ZM81.0755 32.7727H79.3115V19.8647H81.0755V32.7727ZM78.5415 20.1447V32.1987H76.8335V26.1927H75.6015C75.4708 26.986 75.2795 27.756 75.0275 28.5027C74.7755 29.2494 74.4255 29.9727 73.9775 30.6727L72.5635 29.8887C72.9182 29.3194 73.2075 28.7594 73.4315 28.2087C73.6555 27.6487 73.8282 27.084 73.9495 26.5147C74.0802 25.936 74.1688 25.3434 74.2155 24.7367C74.2715 24.13 74.3088 23.4907 74.3275 22.8187H73.4035V21.3207H75.8955C75.8955 21.9087 75.8862 22.4827 75.8675 23.0427C75.8488 23.5934 75.8162 24.1487 75.7695 24.7087H76.8335V20.1447H78.5415ZM73.0255 21.3207C73.0255 22.142 73.0022 22.94 72.9555 23.7147C72.9088 24.48 72.8155 25.2267 72.6755 25.9547C72.5355 26.6734 72.3395 27.378 72.0875 28.0687C71.8355 28.75 71.5088 29.4127 71.1075 30.0567L69.6935 29.2727C70.0108 28.7687 70.2768 28.2647 70.4915 27.7607C70.7062 27.2567 70.8788 26.7434 71.0095 26.2207C71.1495 25.698 71.2522 25.1567 71.3175 24.5967C71.3828 24.0367 71.4248 23.444 71.4435 22.8187H70.1135V21.3207H73.0255ZM96.0763 26.5147H94.2283V19.8647H96.0763V26.5147ZM92.4503 23.3507C92.4503 23.78 92.3616 24.1767 92.1843 24.5407C92.0163 24.9047 91.7783 25.2174 91.4703 25.4787C91.1623 25.74 90.7983 25.9454 90.3783 26.0947C89.9583 26.244 89.5009 26.3187 89.0063 26.3187C88.5116 26.3187 88.0543 26.244 87.6343 26.0947C87.2143 25.9454 86.8503 25.74 86.5423 25.4787C86.2343 25.2174 85.9916 24.9047 85.8143 24.5407C85.6463 24.1767 85.5623 23.78 85.5623 23.3507C85.5623 22.9214 85.6463 22.5247 85.8143 22.1607C85.9916 21.7967 86.2343 21.484 86.5423 21.2227C86.8503 20.9614 87.2143 20.756 87.6343 20.6067C88.0543 20.4574 88.5116 20.3827 89.0063 20.3827C89.5009 20.3827 89.9583 20.4574 90.3783 20.6067C90.7983 20.756 91.1623 20.9614 91.4703 21.2227C91.7783 21.484 92.0163 21.7967 92.1843 22.1607C92.3616 22.5247 92.4503 22.9214 92.4503 23.3507ZM87.3543 23.3507C87.3543 23.808 87.5083 24.1674 87.8163 24.4287C88.1336 24.69 88.5303 24.8207 89.0063 24.8207C89.4823 24.8207 89.8743 24.69 90.1823 24.4287C90.4996 24.1674 90.6583 23.808 90.6583 23.3507C90.6583 22.8747 90.4996 22.5107 90.1823 22.2587C89.8743 22.0067 89.4823 21.8807 89.0063 21.8807C88.5303 21.8807 88.1336 22.0067 87.8163 22.2587C87.5083 22.5107 87.3543 22.8747 87.3543 23.3507ZM88.6563 31.2467C89.0203 31.2467 89.3469 31.242 89.6363 31.2327C89.9349 31.2234 90.2149 31.2094 90.4763 31.1907C90.7469 31.172 91.0036 31.1487 91.2463 31.1207C91.4983 31.0834 91.7549 31.0414 92.0163 30.9947L92.1983 32.3387C91.8809 32.404 91.5636 32.4554 91.2463 32.4927C90.9383 32.53 90.6069 32.558 90.2523 32.5767C89.9069 32.5954 89.5289 32.6047 89.1183 32.6047C88.7169 32.614 88.2549 32.6187 87.7323 32.6187H86.8783V29.1607H89.5103V28.4187H86.8503V27.0607H91.2883V30.4207H88.6563V31.2467ZM96.0763 27.0607V32.7307H94.2563V28.5307H91.7783V27.0607H96.0763ZM103.803 20.5087C104.485 20.5087 105.115 20.5974 105.693 20.7747C106.281 20.952 106.79 21.204 107.219 21.5307C107.658 21.8574 107.999 22.254 108.241 22.7207C108.493 23.178 108.619 23.6867 108.619 24.2467C108.619 24.8067 108.493 25.3154 108.241 25.7727C107.999 26.23 107.658 26.622 107.219 26.9487C106.79 27.2754 106.281 27.5274 105.693 27.7047C105.115 27.882 104.485 27.9707 103.803 27.9707C103.131 27.9707 102.501 27.882 101.913 27.7047C101.325 27.5274 100.817 27.2754 100.387 26.9487C99.9579 26.622 99.6172 26.23 99.3652 25.7727C99.1225 25.3154 99.0012 24.8067 99.0012 24.2467C99.0012 23.6867 99.1225 23.178 99.3652 22.7207C99.6172 22.254 99.9579 21.8574 100.387 21.5307C100.817 21.204 101.325 20.952 101.913 20.7747C102.501 20.5974 103.131 20.5087 103.803 20.5087ZM103.803 22.0207C103.374 22.0207 102.973 22.072 102.599 22.1747C102.235 22.2774 101.918 22.422 101.647 22.6087C101.386 22.7954 101.181 23.0287 101.031 23.3087C100.882 23.5794 100.807 23.892 100.807 24.2467C100.807 24.592 100.882 24.9 101.031 25.1707C101.181 25.4414 101.386 25.6747 101.647 25.8707C101.918 26.0574 102.235 26.202 102.599 26.3047C102.973 26.4074 103.374 26.4587 103.803 26.4587C104.242 26.4587 104.643 26.4074 105.007 26.3047C105.381 26.202 105.698 26.0574 105.959 25.8707C106.23 25.6747 106.44 25.4414 106.589 25.1707C106.739 24.9 106.813 24.592 106.813 24.2467C106.813 23.892 106.739 23.5794 106.589 23.3087C106.44 23.0287 106.23 22.7954 105.959 22.6087C105.698 22.422 105.381 22.2774 105.007 22.1747C104.643 22.072 104.242 22.0207 103.803 22.0207ZM109.655 31.2187H97.9792V29.7067H109.655V31.2187ZM121.4 32.7867H119.552V27.7327H117.186V29.6227H111.054V20.9987H117.186V22.7767H119.552V19.8647H121.4V32.7867ZM112.874 22.4407V28.1667H115.366V22.4407H112.874ZM119.552 24.2607H117.186V26.2627H119.552V24.2607ZM127.483 25.3947V20.4527H129.331V23.9247H136.429V25.3947H127.483ZM135.071 28.3067V32.7727H133.223V28.3067H130.563V32.7727H128.729V28.3067H126.083V26.8087H137.731V28.3067H135.071ZM149.154 27.4807C148.024 27.2567 147.058 26.8507 146.256 26.2627C145.462 25.6747 144.856 24.97 144.436 24.1487C144.016 24.97 143.409 25.6794 142.616 26.2767C141.822 26.8647 140.861 27.266 139.732 27.4807L138.948 25.9407C139.676 25.8194 140.32 25.6094 140.88 25.3107C141.44 25.0027 141.911 24.648 142.294 24.2467C142.676 23.8454 142.966 23.4114 143.162 22.9447C143.358 22.4687 143.456 22.002 143.456 21.5447V20.6207H145.43V21.5447C145.43 22.0114 145.528 22.4827 145.724 22.9587C145.92 23.4254 146.209 23.8594 146.592 24.2607C146.974 24.662 147.446 25.012 148.006 25.3107C148.566 25.6094 149.21 25.8194 149.938 25.9407L149.154 27.4807ZM150.344 31.1907H138.668V29.6927H150.344V31.1907ZM162.019 32.7867H160.171V19.8507H162.019V32.7867ZM155.411 20.7187C155.915 20.7187 156.381 20.798 156.811 20.9567C157.249 21.1154 157.627 21.3347 157.945 21.6147C158.262 21.8947 158.509 22.2307 158.687 22.6227C158.873 23.0054 158.967 23.43 158.967 23.8967C158.967 24.354 158.873 24.7787 158.687 25.1707C158.509 25.5627 158.262 25.8987 157.945 26.1787C157.627 26.4587 157.249 26.678 156.811 26.8367C156.381 26.9954 155.915 27.0747 155.411 27.0747C154.907 27.0747 154.435 26.9954 153.997 26.8367C153.567 26.678 153.194 26.4587 152.877 26.1787C152.569 25.8987 152.321 25.5627 152.135 25.1707C151.957 24.7787 151.869 24.354 151.869 23.8967C151.869 23.43 151.957 23.0054 152.135 22.6227C152.321 22.2307 152.569 21.8947 152.877 21.6147C153.194 21.3347 153.567 21.1154 153.997 20.9567C154.435 20.798 154.907 20.7187 155.411 20.7187ZM155.411 22.3007C154.907 22.3007 154.487 22.4407 154.151 22.7207C153.824 23.0007 153.661 23.3927 153.661 23.8967C153.661 24.4007 153.824 24.7927 154.151 25.0727C154.487 25.3527 154.907 25.4927 155.411 25.4927C155.915 25.4927 156.33 25.3527 156.657 25.0727C156.993 24.7927 157.161 24.4007 157.161 23.8967C157.161 23.3927 156.993 23.0007 156.657 22.7207C156.33 22.4407 155.915 22.3007 155.411 22.3007ZM151.323 28.6707C151.892 28.6707 152.508 28.6707 153.171 28.6707C153.833 28.6614 154.519 28.6427 155.229 28.6147C155.938 28.5867 156.652 28.5447 157.371 28.4887C158.089 28.4327 158.789 28.3534 159.471 28.2507L159.583 29.5807C158.892 29.7207 158.187 29.8327 157.469 29.9167C156.759 29.9914 156.059 30.0474 155.369 30.0847C154.678 30.122 154.011 30.1454 153.367 30.1547C152.723 30.164 152.121 30.1687 151.561 30.1687L151.323 28.6707ZM168.185 25.2127V20.4107H176.935V25.2127H168.185ZM170.005 21.8527V23.7567H175.115V21.8527H170.005ZM178.419 27.6907H173.673V29.8887H171.825V27.6907H166.743V26.2347H178.419V27.6907ZM177.131 31.0647V32.5347H168.101V28.7967H169.949V31.0647H177.131ZM190.346 27.5507H188.596V24.4707H187.588V27.5087H185.866V20.1027H187.588V22.9867H188.596V19.8647H190.346V27.5507ZM179.804 26.8227V20.9987H184.914V26.8227H179.804ZM181.526 22.4127V25.4087H183.206V22.4127H181.526ZM190.346 28.1527V32.7727H188.498V29.6087H181.47V28.1527H190.346ZM197.779 24.4427C196.249 24.4427 195.087 24.2607 194.293 23.8967C193.509 23.5234 193.117 22.9727 193.117 22.2447C193.117 21.5354 193.509 20.994 194.293 20.6207C195.087 20.238 196.249 20.0467 197.779 20.0467C199.319 20.0467 200.481 20.238 201.265 20.6207C202.059 20.994 202.455 21.5354 202.455 22.2447C202.455 22.9727 202.059 23.5234 201.265 23.8967C200.481 24.2607 199.319 24.4427 197.779 24.4427ZM197.779 21.4047C196.846 21.4047 196.155 21.4747 195.707 21.6147C195.259 21.7454 195.035 21.9554 195.035 22.2447C195.035 22.5434 195.259 22.7627 195.707 22.9027C196.155 23.0334 196.846 23.0987 197.779 23.0987C198.741 23.0987 199.441 23.0334 199.879 22.9027C200.318 22.7627 200.537 22.5434 200.537 22.2447C200.537 21.9554 200.318 21.7454 199.879 21.6147C199.441 21.4747 198.741 21.4047 197.779 21.4047ZM203.603 26.5007H191.955V25.0587H203.603V26.5007ZM202.525 31.2747V32.6607H193.299V29.2727H200.369V28.5867H193.285V27.2287H202.189V30.5467H195.133V31.2747H202.525ZM218.128 32.7867H216.28V19.8507H218.128V32.7867ZM211.198 20.7607C211.683 20.7607 212.131 20.868 212.542 21.0827C212.962 21.2974 213.321 21.6054 213.62 22.0067C213.919 22.3987 214.152 22.8794 214.32 23.4487C214.497 24.0087 214.586 24.6434 214.586 25.3527C214.586 26.062 214.497 26.7014 214.32 27.2707C214.152 27.84 213.919 28.3254 213.62 28.7267C213.321 29.128 212.962 29.436 212.542 29.6507C212.131 29.8654 211.683 29.9727 211.198 29.9727C210.713 29.9727 210.26 29.8654 209.84 29.6507C209.429 29.436 209.075 29.128 208.776 28.7267C208.477 28.3254 208.239 27.84 208.062 27.2707C207.894 26.7014 207.81 26.062 207.81 25.3527C207.81 24.6434 207.894 24.0087 208.062 23.4487C208.239 22.8794 208.477 22.3987 208.776 22.0067C209.075 21.6054 209.429 21.2974 209.84 21.0827C210.26 20.868 210.713 20.7607 211.198 20.7607ZM211.198 22.4267C210.722 22.4267 210.335 22.674 210.036 23.1687C209.737 23.6634 209.588 24.3914 209.588 25.3527C209.588 26.314 209.737 27.0467 210.036 27.5507C210.335 28.0454 210.722 28.2927 211.198 28.2927C211.674 28.2927 212.061 28.0454 212.36 27.5507C212.659 27.0467 212.808 26.314 212.808 25.3527C212.808 24.3914 212.659 23.6634 212.36 23.1687C212.061 22.674 211.674 22.4267 211.198 22.4267ZM231.105 32.7447H229.355V26.5987H228.375V32.2127H226.653V20.1027H228.375V25.1147H229.355V19.8507H231.105V32.7447ZM226.191 21.8107V23.2807H220.031V21.8107H222.229V20.2147H224.049V21.8107H226.191ZM223.139 23.8407C223.55 23.8407 223.928 23.9154 224.273 24.0647C224.618 24.214 224.917 24.4287 225.169 24.7087C225.421 24.9794 225.617 25.306 225.757 25.6887C225.897 26.062 225.967 26.4727 225.967 26.9207C225.967 27.3687 225.897 27.7794 225.757 28.1527C225.617 28.526 225.421 28.8527 225.169 29.1327C224.917 29.4034 224.618 29.6134 224.273 29.7627C223.928 29.912 223.55 29.9867 223.139 29.9867C222.728 29.9867 222.35 29.912 222.005 29.7627C221.66 29.6134 221.361 29.4034 221.109 29.1327C220.857 28.8527 220.661 28.526 220.521 28.1527C220.381 27.7794 220.311 27.3687 220.311 26.9207C220.311 26.4727 220.381 26.062 220.521 25.6887C220.661 25.306 220.857 24.9794 221.109 24.7087C221.361 24.4287 221.66 24.214 222.005 24.0647C222.35 23.9154 222.728 23.8407 223.139 23.8407ZM223.139 28.4467C223.494 28.4467 223.783 28.316 224.007 28.0547C224.231 27.784 224.343 27.406 224.343 26.9207C224.343 26.4354 224.231 26.0574 224.007 25.7867C223.783 25.516 223.494 25.3807 223.139 25.3807C222.784 25.3807 222.495 25.516 222.271 25.7867C222.047 26.0574 221.935 26.4354 221.935 26.9207C221.935 27.406 222.047 27.784 222.271 28.0547C222.495 28.316 222.784 28.4467 223.139 28.4467ZM243.704 32.7447H241.954V26.5987H240.974V32.2127H239.252V20.1027H240.974V25.1147H241.954V19.8507H243.704V32.7447ZM238.79 21.8107V23.2807H232.63V21.8107H234.828V20.2147H236.648V21.8107H238.79ZM235.738 23.8407C236.149 23.8407 236.527 23.9154 236.872 24.0647C237.217 24.214 237.516 24.4287 237.768 24.7087C238.02 24.9794 238.216 25.306 238.356 25.6887C238.496 26.062 238.566 26.4727 238.566 26.9207C238.566 27.3687 238.496 27.7794 238.356 28.1527C238.216 28.526 238.02 28.8527 237.768 29.1327C237.516 29.4034 237.217 29.6134 236.872 29.7627C236.527 29.912 236.149 29.9867 235.738 29.9867C235.327 29.9867 234.949 29.912 234.604 29.7627C234.259 29.6134 233.96 29.4034 233.708 29.1327C233.456 28.8527 233.26 28.526 233.12 28.1527C232.98 27.7794 232.91 27.3687 232.91 26.9207C232.91 26.4727 232.98 26.062 233.12 25.6887C233.26 25.306 233.456 24.9794 233.708 24.7087C233.96 24.4287 234.259 24.214 234.604 24.0647C234.949 23.9154 235.327 23.8407 235.738 23.8407ZM235.738 28.4467C236.093 28.4467 236.382 28.316 236.606 28.0547C236.83 27.784 236.942 27.406 236.942 26.9207C236.942 26.4354 236.83 26.0574 236.606 25.7867C236.382 25.516 236.093 25.3807 235.738 25.3807C235.383 25.3807 235.094 25.516 234.87 25.7867C234.646 26.0574 234.534 26.4354 234.534 26.9207C234.534 27.406 234.646 27.784 234.87 28.0547C235.094 28.316 235.383 28.4467 235.738 28.4467ZM256.919 31.2607H245.243V29.7627H247.819V26.6127C247.315 26.314 246.927 25.9407 246.657 25.4927C246.386 25.0354 246.255 24.5267 246.265 23.9667C246.265 23.4347 246.386 22.9587 246.629 22.5387C246.871 22.1094 247.203 21.7454 247.623 21.4467C248.052 21.1387 248.561 20.9054 249.149 20.7467C249.737 20.5787 250.376 20.4947 251.067 20.4947C251.767 20.4947 252.411 20.5787 252.999 20.7467C253.587 20.9054 254.091 21.1387 254.511 21.4467C254.94 21.7454 255.276 22.1094 255.519 22.5387C255.761 22.9587 255.883 23.4347 255.883 23.9667C255.883 24.5267 255.743 25.0354 255.463 25.4927C255.192 25.9407 254.814 26.314 254.329 26.6127V29.7627H256.919V31.2607ZM251.067 21.9507C250.171 21.9507 249.447 22.128 248.897 22.4827C248.355 22.828 248.085 23.3227 248.085 23.9667C248.085 24.6107 248.355 25.11 248.897 25.4647C249.447 25.81 250.171 25.9827 251.067 25.9827C251.515 25.9827 251.921 25.9407 252.285 25.8567C252.658 25.7634 252.975 25.6327 253.237 25.4647C253.498 25.2874 253.699 25.0727 253.839 24.8207C253.988 24.5687 254.063 24.284 254.063 23.9667C254.063 23.64 253.988 23.3554 253.839 23.1127C253.699 22.8607 253.498 22.6507 253.237 22.4827C252.975 22.3054 252.658 22.1747 252.285 22.0907C251.921 21.9974 251.515 21.9507 251.067 21.9507ZM252.495 29.7627V27.2987C252.047 27.3827 251.571 27.4247 251.067 27.4247C250.572 27.4247 250.101 27.3827 249.653 27.2987V29.7627H252.495ZM259.158 28.5867L258.864 22.8607L258.794 20.9147H260.866L260.796 22.8607L260.502 28.5867H259.158ZM258.822 31.7507V29.7627H260.866V31.7507H258.822Z" fill="white"/>
</g>
<path d="M21.3279 2.35535C21.8997 1.32788 23.3776 1.32788 23.9493 2.35535L29.7453 12.7706C30.3017 13.7704 29.5788 15 28.4346 15L16.8427 15C15.6985 15 14.9756 13.7704 15.532 12.7706L21.3279 2.35535Z" fill="#333333"/>
<defs>
<filter id="filter0_d_3694_30486" x="0" y="6.55469" width="279" height="45" filterUnits="userSpaceOnUse" color-interpolation-filters="sRGB">
<feFlood flood-opacity="0" result="BackgroundImageFix"/>
<feColorMatrix in="SourceAlpha" type="matrix" values="0 0 0 0 0 0 0 0 0 0 0 0 0 0 0 0 0 0 127 0" result="hardAlpha"/>
<feOffset dy="2"/>
<feGaussianBlur stdDeviation="2"/>
<feComposite in2="hardAlpha" operator="out"/>
<feColorMatrix type="matrix" values="0 0 0 0 0 0 0 0 0 0 0 0 0 0 0 0 0 0 0.06 0"/>
<feBlend mode="normal" in2="BackgroundImageFix" result="effect1_dropShadow_3694_30486"/>
<feBlend mode="normal" in="SourceGraphic" in2="effect1_dropShadow_3694_30486" result="shape"/>
</filter>
</defs>
</svg>
