<svg width="100" height="24" viewBox="0 0 100 24" fill="none" xmlns="http://www.w3.org/2000/svg">
<path d="M30.5627 10.9657L25.5039 0.83166C25.1369 0.0971622 24.2418 -0.207709 23.4983 0.149404L0.850428 11.0226C0.096755 11.3844 -0.214459 12.2858 0.156483 13.0304L5.20978 23.1676C5.57601 23.9029 6.47193 24.2077 7.21617 23.8506L29.8696 12.9751C30.6232 12.6133 30.9345 11.7111 30.5635 10.9665L30.5627 10.9657Z" fill="#79FF8D"/>
<path d="M5.83226 17.9175L6.90657 9.10719C6.90657 9.06089 6.89873 8.90158 6.77866 8.76033C6.68606 8.65204 6.57541 8.61044 6.52676 8.59553C6.50086 8.58769 6.33057 8.53903 6.15244 8.61986C6.01511 8.68186 5.94134 8.79093 5.90211 8.84979C5.52778 9.41716 5.36456 9.71928 5.36456 9.71928C5.14326 10.1281 5.03026 10.3345 4.90391 10.4436C4.81524 10.5205 4.57118 10.7261 4.20157 10.7442C4.13565 10.7473 3.71189 10.7614 3.38858 10.4381C3.16963 10.2184 3.11627 9.96334 3.09901 9.87545C3.05349 9.64003 3.09194 9.43442 3.15472 9.23353C3.36739 8.55237 3.83196 8.01247 4.09327 7.74095C4.47466 7.34544 4.84427 6.9617 5.465 6.78278C5.83383 6.67684 6.13596 6.68783 6.23641 6.69332C6.43416 6.70509 6.98662 6.74511 7.48964 7.16495C8.02169 7.60833 8.15431 8.18747 8.18806 8.36325C8.30812 8.09173 9.25609 6.01452 10.9417 5.30197C11.732 4.96767 12.4657 4.97474 12.4657 4.97474C12.8345 4.9818 13.2912 5.04301 13.7731 5.23841C15.4626 5.92506 16.0386 7.69465 16.1398 8.02738C16.3109 7.58086 17.0023 5.93369 18.691 5.26901C19.1148 5.10265 19.5182 5.02967 19.8674 5.00534C20.3602 5.00063 21.0892 5.07361 21.8198 5.47932C23.9543 6.6635 23.9912 9.5074 23.9904 9.66357C24.3584 8.93611 24.8497 8.10664 25.505 7.24656C25.9311 6.68783 26.3595 6.20364 26.766 5.7893C26.6883 5.80028 26.4011 5.83246 26.1202 5.65197C25.7694 5.42675 25.7059 5.04929 25.6972 4.99043C25.6917 4.95041 25.6399 4.51409 25.9703 4.21275C26.2246 3.98047 26.5322 3.98596 26.5973 3.9891H29.7912C29.8705 3.9891 30.1341 4.00166 30.3688 4.19941C30.678 4.45916 30.6905 4.83191 30.6913 4.8892C30.3915 6.29703 30.091 7.70407 29.7912 9.1119C29.7692 9.18802 29.661 9.53879 29.311 9.72164C29.1446 9.80874 28.9869 9.82444 28.8903 9.82601C28.8166 9.82601 28.5356 9.81424 28.2924 9.59765C28.0012 9.3379 27.991 8.98398 27.9902 8.92591C28.1276 8.28399 28.2641 7.64286 28.4014 7.00094C27.3554 8.08074 25.6996 10.0834 24.7006 13.0482C24.1379 14.7173 23.9245 17.1783 23.8798 17.7637C23.8751 17.8249 23.8727 17.8861 23.8696 17.9465C23.8625 18.1082 23.8107 18.5884 23.4482 18.9015C23.1343 19.1731 22.7764 19.195 22.6665 19.1974C22.5418 19.1966 22.271 19.1762 22.0081 18.9973C21.8394 18.8827 21.7249 18.7375 21.6472 18.5939C21.5169 18.353 21.4761 18.0736 21.5106 17.8021C21.6425 16.7812 21.7743 15.761 21.9053 14.7401C21.9619 14.2268 22.0176 13.7128 22.0741 13.1996C22.3589 10.6139 22.1651 8.65674 21.7594 7.99913C21.4596 7.51338 21.0508 7.25833 21.0508 7.25833C20.9754 7.2089 20.8703 7.14847 20.7369 7.09589C20.6427 7.05901 20.3288 6.94444 19.9388 6.98054C19.5362 7.0182 19.2545 7.19634 19.1022 7.29365C18.724 7.53378 18.3724 7.96617 18.0829 8.40955C17.6112 9.12994 17.2777 9.93195 17.08 10.7701C16.923 11.4363 16.8124 12.0021 16.7347 12.4392C16.6225 13.0709 16.6421 12.7806 16.3219 15.4236C16.2285 16.1942 16.1351 16.9648 16.0418 17.7346C16.0261 17.8657 16.0151 17.9967 16.0049 18.1286C15.9915 18.2989 15.9295 18.6135 15.6627 18.8725C15.3182 19.2084 14.8913 19.199 14.8183 19.1966C14.7116 19.1958 14.3734 19.1793 14.0689 18.929C13.9237 18.8097 13.8272 18.6708 13.7636 18.5382C13.6593 18.3216 13.6279 18.0768 13.6577 17.839C13.766 16.9687 14.2745 13.6163 14.3726 12.0986C14.386 11.8946 14.4158 11.3413 14.4275 10.6508C14.4385 9.96569 14.4448 9.62355 14.4173 9.40774C14.3655 8.99732 14.2157 7.75194 13.2857 7.19477C13.1233 7.09746 12.8949 6.99309 12.5944 6.93973C12.4963 6.93424 12.3095 6.9311 12.0874 6.97897C9.56606 7.52436 8.74052 13.3008 8.66126 13.8878C8.45879 15.3953 8.3811 16.1502 8.36149 16.3158C8.26496 17.1178 8.18806 17.7676 8.14176 18.1686C8.12763 18.2698 8.07192 18.5908 7.79647 18.86C7.4606 19.1888 7.04861 19.1958 6.97092 19.1966C6.87754 19.1966 6.51185 19.1856 6.19089 18.9023C6.17206 18.8859 6.15479 18.8694 6.13753 18.8529C5.89426 18.6096 5.7891 18.2604 5.83069 17.9183L5.83226 17.9175Z" fill="#333333"/>
<path d="M99.8399 19.2028H96.4767V4.60345C96.4767 3.47374 97.2671 2.88281 98.1583 2.88281C99.0495 2.88281 99.8399 3.47374 99.8399 4.60345V19.2028ZM88.9602 15.3966H94.1394C95.1147 15.3966 95.4005 16.1787 95.4005 16.8391C95.4005 17.5169 95.0979 18.3338 94.1394 18.3338H87.6654C85.6811 18.3338 85.1094 17.6038 85.1094 15.6399V5.2639C85.1094 4.09943 85.9165 3.57802 86.8246 3.57802C87.7494 3.57802 88.4725 4.11681 88.4725 5.2639V14.9099C88.4725 15.3096 88.5734 15.3966 88.9602 15.3966Z" fill="#333333"/>
<path d="M81.3398 2.88281C82.2311 2.88281 83.0214 3.47374 83.0214 4.60345V19.2028H79.6583V12.3029H77.3713V18.5424H70.7964C68.6272 18.5424 68.2236 17.8645 68.2236 15.6746V6.32409C68.2236 4.13419 68.6272 3.45636 70.7964 3.45636H74.7985C76.9678 3.45636 77.3713 4.13419 77.3713 6.32409V9.33086H79.6583V4.60345C79.6583 3.47374 80.4486 2.88281 81.3398 2.88281ZM72.024 15.8137H74.1259V6.75859C74.1259 6.41099 74.0418 6.18505 73.6719 6.18505H71.9063C71.5363 6.18505 71.469 6.41099 71.469 6.75859V15.2227C71.469 15.6051 71.5868 15.8137 72.024 15.8137Z" fill="#333333"/>
<path d="M61.2126 2.88281C62.1039 2.88281 62.6756 3.47374 62.6756 4.37751V19.2028H59.7329V12.1291H58.5221C58.2026 16.4915 55.7812 18.2469 52.7376 18.664C51.5268 18.8726 50.7869 18.1079 50.8374 17.2041C50.871 16.4741 51.3082 15.9875 52.1322 15.7963C54.1501 15.3966 55.4617 14.5449 55.4617 11.121V6.9324C55.4617 6.68907 55.3103 6.49789 55.0413 6.49789H52.5358C51.5268 6.49789 51.0392 5.7853 51.0392 5.05534C51.0392 4.34275 51.51 3.54326 52.5358 3.54326H56.2857C57.9336 3.54326 58.5558 4.27323 58.5558 5.76792V9.33086H59.7329V4.37751C59.7329 3.47374 60.3214 2.88281 61.2126 2.88281ZM64.9962 2.88281C65.8874 2.88281 66.4591 3.47374 66.4591 4.37751V19.2028H63.5164V4.37751C63.5164 3.47374 64.1049 2.88281 64.9962 2.88281Z" fill="#333333"/>
<path d="M49.391 19.2028H46.0278V4.60345C46.0278 3.47374 46.8182 2.88281 47.7094 2.88281C48.6006 2.88281 49.391 3.47374 49.391 4.60345V19.2028ZM34.5596 14.1973V7.81879C34.5596 4.81201 36.5774 3.1609 39.3352 3.1609C42.093 3.1609 44.1277 4.79463 44.1277 7.81879V14.1973C44.1277 17.2389 42.093 18.8726 39.352 18.8726C36.5943 18.8726 34.5596 17.2389 34.5596 14.1973ZM37.8386 7.69713V14.319C37.8386 15.4661 38.5617 16.0222 39.3352 16.0222C40.1087 16.0222 40.8654 15.4661 40.8654 14.319V7.69713C40.8654 6.58479 40.1087 5.99387 39.3352 6.01125C38.5617 6.02863 37.8386 6.60217 37.8386 7.69713Z" fill="#333333"/>
</svg>
