<svg width="263" height="47" viewBox="0 0 263 47" fill="none" xmlns="http://www.w3.org/2000/svg">
<g filter="url(#filter0_d_3694_30490)">
<rect x="4" y="2" width="255" height="37" rx="4" fill="#333333" shape-rendering="crispEdges"/>
<path d="M26.78 19.932V26.204H24.932V13.296H26.78V18.406H28.474V19.932H26.78ZM16.518 19.176C17.0127 19.036 17.4373 18.8493 17.792 18.616C18.156 18.3827 18.4593 18.1213 18.702 17.832C18.9447 17.5333 19.1313 17.216 19.262 16.88C19.3927 16.5347 19.472 16.1847 19.5 15.83H16.98V14.332H23.952V15.83H21.404C21.432 16.1567 21.5113 16.4787 21.642 16.796C21.7727 17.104 21.9547 17.3933 22.188 17.664C22.4307 17.9347 22.7293 18.182 23.084 18.406C23.4387 18.6207 23.854 18.798 24.33 18.938L23.462 20.366C22.734 20.1607 22.1273 19.8573 21.642 19.456C21.1567 19.0547 20.7693 18.588 20.48 18.056C20.2 18.644 19.808 19.162 19.304 19.61C18.8 20.058 18.17 20.394 17.414 20.618L16.518 19.176ZM21.39 22.186C22.3887 22.13 23.3453 22.046 24.26 21.934L24.414 23.264C23.7327 23.3947 23.0467 23.4927 22.356 23.558C21.6747 23.6233 21.0027 23.67 20.34 23.698C19.6773 23.726 19.0333 23.7447 18.408 23.754C17.792 23.754 17.2133 23.754 16.672 23.754L16.462 22.256H17.918C18.4313 22.256 18.968 22.2513 19.528 22.242V20.044H21.39V22.186ZM35.0109 19.554C34.3296 19.554 33.6996 19.4887 33.1209 19.358C32.5516 19.218 32.0616 19.022 31.6509 18.77C31.2402 18.518 30.9182 18.2147 30.6849 17.86C30.4609 17.496 30.3489 17.09 30.3489 16.642C30.3489 16.2033 30.4609 15.8067 30.6849 15.452C30.9182 15.0973 31.2402 14.794 31.6509 14.542C32.0616 14.29 32.5516 14.094 33.1209 13.954C33.6996 13.814 34.3296 13.744 35.0109 13.744C35.7016 13.744 36.3316 13.814 36.9009 13.954C37.4702 14.094 37.9602 14.29 38.3709 14.542C38.7816 14.794 39.0989 15.0973 39.3229 15.452C39.5562 15.8067 39.6729 16.2033 39.6729 16.642C39.6729 17.09 39.5562 17.496 39.3229 17.86C39.0989 18.2147 38.7816 18.518 38.3709 18.77C37.9602 19.022 37.4702 19.218 36.9009 19.358C36.3316 19.4887 35.7016 19.554 35.0109 19.554ZM35.0109 15.214C34.1616 15.214 33.4849 15.3353 32.9809 15.578C32.4862 15.8113 32.2389 16.166 32.2389 16.642C32.2389 17.118 32.4862 17.4773 32.9809 17.72C33.4849 17.9627 34.1616 18.084 35.0109 18.084C35.8602 18.084 36.5322 17.9627 37.0269 17.72C37.5216 17.4773 37.7689 17.118 37.7689 16.642C37.7689 16.166 37.5216 15.8113 37.0269 15.578C36.5322 15.3353 35.8602 15.214 35.0109 15.214ZM35.9209 22.004V26.218H34.0729V22.004H29.2009V20.52H40.8769V22.004H35.9209ZM53.4758 24.79H41.7998V23.278H46.6998V21.36H43.1438V16.992H50.3398V15.606H43.1298V14.136H52.1598V18.434H44.9778V19.876H52.4538V21.36H48.5478V23.278H53.4758V24.79ZM68.0706 20.66H66.2226V16.95H63.1006V15.452H66.2226V13.296H68.0706V20.66ZM64.9346 19.694C63.9173 19.8993 62.9233 20.0393 61.9526 20.114C60.9913 20.1793 60.0299 20.212 59.0686 20.212H57.9906V13.982H59.8246V18.672C60.6459 18.6533 61.4533 18.6067 62.2466 18.532C63.0493 18.4573 63.8753 18.336 64.7246 18.168L64.9346 19.694ZM68.0706 21.22V26.05H59.5166V21.22H68.0706ZM66.2646 24.608V22.662H61.3226V24.608H66.2646ZM80.6695 26.19H78.8215V21.612H75.7835V20.128H78.8215V18.084H75.9795C75.6248 19.2787 75.0275 20.3753 74.1875 21.374C73.3475 22.3633 72.1855 23.2313 70.7015 23.978L69.7495 22.55C71.2615 21.7567 72.4002 20.842 73.1655 19.806C73.9402 18.7607 74.4022 17.5287 74.5515 16.11H70.3655V14.64H76.4275C76.4275 15.3027 76.3855 15.956 76.3015 16.6H78.8215V13.31H80.6695V26.19ZM93.3104 26.232H91.4624V18.826H88.9844V17.342H91.4624V13.296H93.3104V26.232ZM87.3324 16.166C87.3324 16.7727 87.3931 17.37 87.5144 17.958C87.6357 18.546 87.8177 19.0967 88.0604 19.61C88.3124 20.114 88.6297 20.5667 89.0124 20.968C89.4044 21.3693 89.8664 21.6867 90.3984 21.92L89.3064 23.39C88.5971 23.0447 88.0044 22.5733 87.5284 21.976C87.0617 21.3787 86.6931 20.6833 86.4224 19.89C86.1424 20.7393 85.7597 21.4813 85.2744 22.116C84.7891 22.7507 84.1824 23.25 83.4544 23.614L82.3064 22.13C82.8571 21.878 83.3284 21.542 83.7204 21.122C84.1217 20.6927 84.4531 20.2167 84.7144 19.694C84.9757 19.162 85.1671 18.5973 85.2884 18C85.4097 17.3933 85.4704 16.782 85.4704 16.166V14.304H87.3324V16.166ZM99.4072 18.658V13.856H108.157V18.658H99.4072ZM101.227 15.298V17.202H106.337V15.298H101.227ZM109.641 21.136H104.895V23.334H103.047V21.136H97.9652V19.68H109.641V21.136ZM108.353 24.51V25.98H99.3232V22.242H101.171V24.51H108.353ZM122.436 17.79H120.728V20.968H118.88V13.31H120.728V16.278H122.436V17.79ZM117.382 20.59C116.673 20.3753 116.071 20.0673 115.576 19.666C115.091 19.2553 114.708 18.784 114.428 18.252C114.139 18.896 113.737 19.4607 113.224 19.946C112.711 20.4313 112.076 20.7953 111.32 21.038L110.396 19.596C110.919 19.4187 111.367 19.19 111.74 18.91C112.123 18.63 112.435 18.3173 112.678 17.972C112.93 17.6173 113.117 17.244 113.238 16.852C113.359 16.4507 113.425 16.0493 113.434 15.648H110.872V14.164H117.844V15.648H115.324C115.333 16.012 115.394 16.376 115.506 16.74C115.627 17.0947 115.805 17.426 116.038 17.734C116.281 18.042 116.584 18.322 116.948 18.574C117.321 18.8167 117.76 19.0127 118.264 19.162L117.382 20.59ZM116.514 21.192C117.186 21.192 117.788 21.248 118.32 21.36C118.861 21.472 119.319 21.64 119.692 21.864C120.075 22.0787 120.364 22.3447 120.56 22.662C120.765 22.97 120.868 23.32 120.868 23.712C120.868 24.104 120.765 24.454 120.56 24.762C120.364 25.07 120.075 25.3313 119.692 25.546C119.319 25.7607 118.861 25.924 118.32 26.036C117.788 26.148 117.186 26.204 116.514 26.204C115.842 26.204 115.235 26.148 114.694 26.036C114.153 25.924 113.691 25.7607 113.308 25.546C112.935 25.3313 112.645 25.07 112.44 24.762C112.244 24.454 112.146 24.104 112.146 23.712C112.146 23.32 112.244 22.97 112.44 22.662C112.645 22.3447 112.935 22.0787 113.308 21.864C113.691 21.64 114.153 21.472 114.694 21.36C115.235 21.248 115.842 21.192 116.514 21.192ZM116.514 24.79C117.335 24.79 117.961 24.7013 118.39 24.524C118.819 24.3467 119.034 24.076 119.034 23.712C119.034 23.3387 118.819 23.0633 118.39 22.886C117.961 22.7087 117.335 22.62 116.514 22.62C114.825 22.62 113.98 22.984 113.98 23.712C113.98 24.4307 114.825 24.79 116.514 24.79ZM123.723 19.582V13.842H125.557V15.354H128.007V13.842H129.813V14.934H132.109V13.324H133.957V19.932H132.109V18.686H129.813V19.582H123.723ZM129.813 17.286H132.109V16.334H129.813V17.286ZM125.557 16.74V18.14H128.007V16.74H125.557ZM134.321 26.064H125.473V22.536H132.123V21.85H125.445V20.422H133.957V23.866H127.293V24.622H134.321V26.064ZM147.452 24.79H135.776V23.278H140.676V21.36H137.12V16.992H144.316V15.606H137.106V14.136H146.136V18.434H138.954V19.876H146.43V21.36H142.524V23.278H147.452V24.79ZM163.125 18.336H161.417V22.634H159.569V13.31H161.417V16.824H163.125V18.336ZM158.743 20.114C158.351 20.198 157.954 20.268 157.553 20.324C157.161 20.38 156.731 20.422 156.265 20.45C155.807 20.478 155.299 20.5013 154.739 20.52C154.188 20.5293 153.553 20.534 152.835 20.534H151.757V14.332H157.525V15.802H153.591V19.05C154.169 19.05 154.687 19.0453 155.145 19.036C155.602 19.0173 156.027 18.994 156.419 18.966C156.811 18.938 157.179 18.9007 157.525 18.854C157.87 18.798 158.215 18.7327 158.561 18.658L158.743 20.114ZM161.879 24.51V25.98H153.101V21.654H154.949V24.51H161.879ZM174.688 26.232H172.84V19.442H170.698C170.651 20.058 170.534 20.6133 170.348 21.108C170.17 21.5933 169.937 22.0087 169.648 22.354C169.358 22.6993 169.022 22.9653 168.64 23.152C168.257 23.3293 167.842 23.418 167.394 23.418C166.918 23.418 166.474 23.3107 166.064 23.096C165.653 22.8813 165.298 22.5733 165 22.172C164.71 21.7707 164.482 21.2853 164.314 20.716C164.146 20.1467 164.062 19.5073 164.062 18.798C164.062 18.0887 164.146 17.454 164.314 16.894C164.482 16.3247 164.71 15.844 165 15.452C165.298 15.0507 165.653 14.7427 166.064 14.528C166.474 14.3133 166.918 14.206 167.394 14.206C167.832 14.206 168.234 14.2947 168.598 14.472C168.971 14.64 169.302 14.8873 169.592 15.214C169.881 15.5313 170.119 15.9233 170.306 16.39C170.492 16.8473 170.618 17.3653 170.684 17.944H172.84V13.296H174.688V26.232ZM167.394 21.738C167.87 21.738 168.252 21.4907 168.542 20.996C168.831 20.492 168.976 19.7593 168.976 18.798C168.976 17.8367 168.831 17.1087 168.542 16.614C168.252 16.1193 167.87 15.872 167.394 15.872C166.918 15.872 166.535 16.1193 166.246 16.614C165.966 17.1087 165.826 17.8367 165.826 18.798C165.826 19.7593 165.966 20.492 166.246 20.996C166.535 21.4907 166.918 21.738 167.394 21.738ZM177.893 14.78V13.534H186.713V16.572H179.741V17.244H186.937V18.49H177.921V15.41H184.893V14.78H177.893ZM188.141 20.436H176.465V19.106H188.141V20.436ZM187.105 24.846V26.092H177.795V22.984H184.921V22.326H177.781V21.08H186.755V24.146H179.629V24.846H187.105ZM200.033 18.21C200.183 17.622 200.276 17.104 200.313 16.656C200.351 16.208 200.369 15.7693 200.369 15.34H193.285V13.884H202.217V14.948C202.217 15.4613 202.199 15.998 202.161 16.558C202.133 17.1087 202.031 17.72 201.853 18.392L200.033 18.21ZM203.589 20.534H191.983V19.078H196.281V16.824H198.129V19.078H203.589V20.534ZM197.709 21.346C198.409 21.346 199.039 21.402 199.599 21.514C200.159 21.626 200.64 21.7893 201.041 22.004C201.443 22.2093 201.751 22.4613 201.965 22.76C202.18 23.0587 202.287 23.3993 202.287 23.782C202.287 24.1553 202.18 24.4913 201.965 24.79C201.751 25.0887 201.443 25.3407 201.041 25.546C200.64 25.7607 200.159 25.924 199.599 26.036C199.039 26.148 198.409 26.204 197.709 26.204C197.019 26.204 196.389 26.148 195.819 26.036C195.259 25.924 194.779 25.7607 194.377 25.546C193.985 25.3407 193.682 25.0887 193.467 24.79C193.253 24.4913 193.145 24.1553 193.145 23.782C193.145 23.3993 193.253 23.0587 193.467 22.76C193.682 22.4613 193.985 22.2093 194.377 22.004C194.779 21.7893 195.259 21.626 195.819 21.514C196.389 21.402 197.019 21.346 197.709 21.346ZM197.709 24.818C198.587 24.818 199.263 24.734 199.739 24.566C200.215 24.3887 200.453 24.1273 200.453 23.782C200.453 23.4273 200.215 23.166 199.739 22.998C199.263 22.8207 198.587 22.732 197.709 22.732C196.832 22.732 196.155 22.8207 195.679 22.998C195.213 23.166 194.979 23.4273 194.979 23.782C194.979 24.1273 195.213 24.3887 195.679 24.566C196.155 24.734 196.832 24.818 197.709 24.818ZM205.884 19.512V13.8H207.718V15.27H213.024V13.8H214.844V19.512H205.884ZM207.718 16.712V18.042H213.024V16.712H207.718ZM211.274 22.2V26.218H209.426V22.2H204.554V20.73H216.23V22.2H211.274ZM228.213 26.19H226.463V20.044H225.483V25.658H223.761V13.548H225.483V18.56H226.463V13.296H228.213V26.19ZM223.299 15.256V16.726H217.139V15.256H219.337V13.66H221.157V15.256H223.299ZM220.247 17.286C220.658 17.286 221.036 17.3607 221.381 17.51C221.726 17.6593 222.025 17.874 222.277 18.154C222.529 18.4247 222.725 18.7513 222.865 19.134C223.005 19.5073 223.075 19.918 223.075 20.366C223.075 20.814 223.005 21.2247 222.865 21.598C222.725 21.9713 222.529 22.298 222.277 22.578C222.025 22.8487 221.726 23.0587 221.381 23.208C221.036 23.3573 220.658 23.432 220.247 23.432C219.836 23.432 219.458 23.3573 219.113 23.208C218.768 23.0587 218.469 22.8487 218.217 22.578C217.965 22.298 217.769 21.9713 217.629 21.598C217.489 21.2247 217.419 20.814 217.419 20.366C217.419 19.918 217.489 19.5073 217.629 19.134C217.769 18.7513 217.965 18.4247 218.217 18.154C218.469 17.874 218.768 17.6593 219.113 17.51C219.458 17.3607 219.836 17.286 220.247 17.286ZM220.247 21.892C220.602 21.892 220.891 21.7613 221.115 21.5C221.339 21.2293 221.451 20.8513 221.451 20.366C221.451 19.8807 221.339 19.5027 221.115 19.232C220.891 18.9613 220.602 18.826 220.247 18.826C219.892 18.826 219.603 18.9613 219.379 19.232C219.155 19.5027 219.043 19.8807 219.043 20.366C219.043 20.8513 219.155 21.2293 219.379 21.5C219.603 21.7613 219.892 21.892 220.247 21.892ZM241.428 24.706H229.752V23.208H232.328V20.058C231.824 19.7593 231.437 19.386 231.166 18.938C230.895 18.4807 230.765 17.972 230.774 17.412C230.774 16.88 230.895 16.404 231.138 15.984C231.381 15.5547 231.712 15.1907 232.132 14.892C232.561 14.584 233.07 14.3507 233.658 14.192C234.246 14.024 234.885 13.94 235.576 13.94C236.276 13.94 236.92 14.024 237.508 14.192C238.096 14.3507 238.6 14.584 239.02 14.892C239.449 15.1907 239.785 15.5547 240.028 15.984C240.271 16.404 240.392 16.88 240.392 17.412C240.392 17.972 240.252 18.4807 239.972 18.938C239.701 19.386 239.323 19.7593 238.838 20.058V23.208H241.428V24.706ZM235.576 15.396C234.68 15.396 233.957 15.5733 233.406 15.928C232.865 16.2733 232.594 16.768 232.594 17.412C232.594 18.056 232.865 18.5553 233.406 18.91C233.957 19.2553 234.68 19.428 235.576 19.428C236.024 19.428 236.43 19.386 236.794 19.302C237.167 19.2087 237.485 19.078 237.746 18.91C238.007 18.7327 238.208 18.518 238.348 18.266C238.497 18.014 238.572 17.7293 238.572 17.412C238.572 17.0853 238.497 16.8007 238.348 16.558C238.208 16.306 238.007 16.096 237.746 15.928C237.485 15.7507 237.167 15.62 236.794 15.536C236.43 15.4427 236.024 15.396 235.576 15.396ZM237.004 23.208V20.744C236.556 20.828 236.08 20.87 235.576 20.87C235.081 20.87 234.61 20.828 234.162 20.744V23.208H237.004ZM243.667 22.032L243.373 16.306L243.303 14.36H245.375L245.305 16.306L245.011 22.032H243.667ZM243.331 25.196V23.208H245.375V25.196H243.331Z" fill="white"/>
</g>
<path d="M210.949 44.6446C210.378 45.6721 208.9 45.6721 208.328 44.6447L202.532 34.2294C201.976 33.2296 202.699 32 203.843 32L215.435 32C216.579 32 217.302 33.2296 216.745 34.2294L210.949 44.6446Z" fill="#333333"/>
<defs>
<filter id="filter0_d_3694_30490" x="0" y="0" width="263" height="45" filterUnits="userSpaceOnUse" color-interpolation-filters="sRGB">
<feFlood flood-opacity="0" result="BackgroundImageFix"/>
<feColorMatrix in="SourceAlpha" type="matrix" values="0 0 0 0 0 0 0 0 0 0 0 0 0 0 0 0 0 0 127 0" result="hardAlpha"/>
<feOffset dy="2"/>
<feGaussianBlur stdDeviation="2"/>
<feComposite in2="hardAlpha" operator="out"/>
<feColorMatrix type="matrix" values="0 0 0 0 0 0 0 0 0 0 0 0 0 0 0 0 0 0 0.06 0"/>
<feBlend mode="normal" in2="BackgroundImageFix" result="effect1_dropShadow_3694_30490"/>
<feBlend mode="normal" in="SourceGraphic" in2="effect1_dropShadow_3694_30490" result="shape"/>
</filter>
</defs>
</svg>
