<svg width="60" height="60" viewBox="0 0 60 60" fill="none" xmlns="http://www.w3.org/2000/svg">
<path d="M10.1723 23.603C10.049 22.8209 10.9053 22.2585 11.574 22.6823L47.8937 45.6966C48.6722 46.1899 48.3227 47.3943 47.401 47.3943H14.71C14.257 47.3943 13.8714 47.0648 13.8009 46.6173L10.1723 23.603Z" fill="#FFE02F"/>
<path d="M29.6451 14.6147C29.8789 14.1953 30.4819 14.1948 30.7164 14.6138L45.0376 40.2025C45.2665 40.6114 44.9709 41.1157 44.5022 41.1157H15.9156C15.4474 41.1157 15.1517 40.6123 15.3797 40.2034L29.6451 14.6147Z" fill="#FFE02F"/>
<path d="M50.2613 23.603C50.3846 22.8209 49.5283 22.2585 48.8596 22.6823L12.5399 45.6966C11.7614 46.1899 12.1109 47.3943 13.0325 47.3943H45.7236C46.1765 47.3943 46.5622 47.0648 46.6327 46.6173L50.2613 23.603Z" fill="#FFE02F"/>
<circle cx="9.67087" cy="18.4717" r="2.14743" fill="#FFE02F"/>
<circle cx="30.2138" cy="9.95066" r="2.14743" fill="#FFE02F"/>
<circle cx="50.3584" cy="18.4717" r="2.14743" fill="#FFE02F"/>
</svg>
